
<svg width="48" height="48" viewBox="0 0 48 48" fill="none" xmlns="http://www.w3.org/2000/svg">
<path d="M3 18.2C3 12.8795 3 10.2193 4.03544 8.18709C4.94624 6.39955 6.39955 4.94624 8.18709 4.03544C10.2193 3 12.8795 3 18.2 3H29.8C35.1205 3 37.7807 3 39.8129 4.03544C41.6004 4.94624 43.0538 6.39955 43.9646 8.18709C45 10.2193 45 12.8795 45 18.2V29.8C45 35.1205 45 37.7807 43.9646 39.8129C43.0538 41.6004 41.6004 43.0538 39.8129 43.9646C37.7807 45 35.1205 45 29.8 45H18.2C12.8795 45 10.2193 45 8.18709 43.9646C6.39955 43.0538 4.94624 41.6004 4.03544 39.8129C3 37.7807 3 35.1205 3 29.8V18.2Z" fill="#001E36"/>
<path d="M25.0568 33.9301H13.9558C13.7679 33.9301 13.674 33.8242 13.6741 33.6123V15.2624C13.6533 15.1131 13.7822 14.9809 13.9277 15.0023H17.3651C17.4783 14.9859 17.578 15.0903 17.5623 15.2046V30.2891H25.6485C25.8175 30.2891 25.8833 30.3758 25.8457 30.5491L25.3386 33.6701C25.3342 33.8272 25.2052 33.9285 25.0568 33.9301Z" fill="#31A8FF"/>
<path d="M27.877 19.5479H30.9481C31.1175 19.5494 31.2695 19.6694 31.3144 19.8369C31.5394 20.3494 31.5672 20.9675 31.568 21.5208C32.0946 20.8919 32.7297 20.3678 33.4415 19.9749C34.205 19.5318 35.0705 19.3072 35.9475 19.3247C36.0931 19.3033 36.2219 19.4355 36.2011 19.5847V23.0813C36.2011 23.2163 36.1069 23.2836 35.9194 23.2836C34.6195 23.1916 32.5957 23.5066 31.6511 24.5551V33.6468C31.6511 33.8202 31.576 33.9069 31.4257 33.9068H28.1306C27.9687 33.9307 27.826 33.7813 27.8488 33.6179V23.746C27.8488 22.4231 27.8768 21.0605 27.6798 19.7502C27.6494 19.6296 27.762 19.5175 27.877 19.5479Z" fill="#31A8FF"/>
</svg>
