<svg width="1440" height="308" viewBox="0 0 1440 308" fill="none" xmlns="http://www.w3.org/2000/svg">
<circle cx="-75.3344" cy="-48.6766" r="143.764" transform="rotate(59.0881 -75.3344 -48.6766)" stroke="white" stroke-opacity="0.04" stroke-width="2"/>
<circle cx="17.8874" cy="-42.512" r="238.303" transform="rotate(59.0881 17.8874 -42.512)" stroke="white" stroke-opacity="0.04" stroke-width="2"/>
<circle cx="81.7091" cy="-22.1875" r="306.253" transform="rotate(59.0881 81.7091 -22.1875)" stroke="white" stroke-opacity="0.04" stroke-width="2"/>
<circle cx="148.074" cy="-11.9937" r="372.727" transform="rotate(59.0881 148.074 -11.9937)" stroke="white" stroke-opacity="0.04" stroke-width="2"/>
<circle cx="210.887" cy="3.76961" r="433.291" transform="rotate(59.0881 210.887 3.76961)" stroke="white" stroke-opacity="0.04" stroke-width="2"/>
<circle cx="269.654" cy="9.90294" r="495.333" transform="rotate(59.0881 269.654 9.90294)" stroke="white" stroke-opacity="0.04" stroke-width="2"/>
<circle cx="345.471" cy="35.3967" r="564.96" transform="rotate(59.0881 345.471 35.3967)" stroke="white" stroke-opacity="0.04" stroke-width="2"/>
<circle cx="440.827" cy="59.3282" r="634.466" transform="rotate(59.0881 440.827 59.3282)" stroke="white" stroke-opacity="0.04" stroke-width="2"/>
<circle cx="546.344" cy="85.798" r="711.517" transform="rotate(59.0881 546.344 85.798)" stroke="white" stroke-opacity="0.04" stroke-width="2"/>
<circle cx="776.583" cy="143.609" r="879.047" transform="rotate(59.0881 776.583 143.609)" stroke="white" stroke-opacity="0.04" stroke-width="2"/>
<circle cx="905.414" cy="175.943" r="972.948" transform="rotate(59.0881 905.414 175.943)" stroke="white" stroke-opacity="0.04" stroke-width="2"/>
</svg>
