<svg width="20" height="20" viewBox="0 0 20 20" fill="none" xmlns="http://www.w3.org/2000/svg">
<mask id="mask0_303_1404" style="mask-type:alpha" maskUnits="userSpaceOnUse" x="0" y="0" width="20" height="20">
<rect y="20" width="20" height="20" transform="rotate(-90 0 20)" fill="#D9D9D9"/>
</mask>
<g mask="url(#mask0_303_1404)">
<path d="M11.0754 9.45354L7.68104 6.05938C7.56576 5.94396 7.50674 5.79889 7.50396 5.62417C7.50132 5.44958 7.56035 5.30188 7.68104 5.18104C7.80188 5.06035 7.94826 5 8.12021 5C8.29215 5 8.43854 5.06035 8.55937 5.18104L12.3046 8.92625C12.3825 9.00431 12.4375 9.0866 12.4696 9.17313C12.5017 9.25965 12.5177 9.35313 12.5177 9.45354C12.5177 9.55396 12.5017 9.64743 12.4696 9.73396C12.4375 9.82049 12.3825 9.90278 12.3046 9.98083L8.55937 13.726C8.44396 13.8413 8.29889 13.9003 8.12417 13.9031C7.94958 13.9058 7.80188 13.8467 7.68104 13.726C7.56035 13.6052 7.5 13.4588 7.5 13.2869C7.5 13.1149 7.56035 12.9685 7.68104 12.8477L11.0754 9.45354Z" fill="#131313"/>
</g>
</svg>
