<svg width="20" height="20" viewBox="0 0 20 20" fill="none" xmlns="http://www.w3.org/2000/svg">
<mask id="mask0_235_2379" style="mask-type:alpha" maskUnits="userSpaceOnUse" x="0" y="0" width="20" height="20">
<rect width="20" height="20" fill="#D9D9D9"/>
</mask>
<g mask="url(#mask0_235_2379)">
<path d="M10.5465 11.0754L13.9406 7.68104C14.056 7.56576 14.2011 7.50674 14.3758 7.50396C14.5504 7.50132 14.6981 7.56035 14.819 7.68104C14.9397 7.80188 15 7.94826 15 8.12021C15 8.29215 14.9397 8.43854 14.819 8.55937L11.0737 12.3046C10.9957 12.3825 10.9134 12.4375 10.8269 12.4696C10.7403 12.5017 10.6469 12.5177 10.5465 12.5177C10.446 12.5177 10.3526 12.5017 10.266 12.4696C10.1795 12.4375 10.0972 12.3825 10.0192 12.3046L6.27396 8.55937C6.15868 8.44396 6.09965 8.29889 6.09687 8.12417C6.09423 7.94958 6.15326 7.80187 6.27396 7.68104C6.39479 7.56035 6.54118 7.5 6.71312 7.5C6.88507 7.5 7.03146 7.56035 7.15229 7.68104L10.5465 11.0754Z" fill="white"/>
</g>
</svg>
