<svg width="20" height="20" viewBox="0 0 20 20" fill="none" xmlns="http://www.w3.org/2000/svg">
<mask id="mask0_176_5517" style="mask-type:alpha" maskUnits="userSpaceOnUse" x="0" y="0" width="20" height="20">
<rect width="20" height="20" transform="matrix(1 0 0 -1 0 20)" fill="#D9D9D9"/>
</mask>
<g mask="url(#mask0_176_5517)">
<path d="M10.5465 8.92458L13.9406 12.319C14.056 12.4342 14.2011 12.4933 14.3758 12.496C14.5504 12.4987 14.6981 12.4397 14.819 12.319C14.9397 12.1981 15 12.0517 15 11.8798C15 11.7078 14.9397 11.5615 14.819 11.4406L11.0737 7.69542C10.9957 7.6175 10.9134 7.5625 10.8269 7.53042C10.7403 7.49833 10.6469 7.48229 10.5465 7.48229C10.446 7.48229 10.3526 7.49833 10.266 7.53042C10.1795 7.5625 10.0972 7.6175 10.0192 7.69542L6.27396 11.4406C6.15868 11.556 6.09965 11.7011 6.09687 11.8758C6.09423 12.0504 6.15326 12.1981 6.27396 12.319C6.39479 12.4397 6.54118 12.5 6.71312 12.5C6.88507 12.5 7.03146 12.4397 7.15229 12.319L10.5465 8.92458Z" fill="#131313"/>
</g>
</svg>
