<svg width="20" height="20" viewBox="0 0 20 20" fill="none" xmlns="http://www.w3.org/2000/svg">
<mask id="mask0_235_3165" style="mask-type:alpha" maskUnits="userSpaceOnUse" x="0" y="0" width="20" height="20">
<rect width="20" height="20" fill="#D9D9D9"/>
</mask>
<g mask="url(#mask0_235_3165)">
<path d="M10.6247 9.74704V6.4585C10.6247 6.28141 10.5647 6.13294 10.4449 6.01308C10.325 5.89336 10.1765 5.8335 9.99947 5.8335C9.82224 5.8335 9.67384 5.89336 9.55426 6.01308C9.43454 6.13294 9.37467 6.28141 9.37467 6.4585V9.93933C9.37467 10.0374 9.39287 10.1324 9.42926 10.2243C9.46551 10.3163 9.52266 10.4013 9.60072 10.4793L12.4549 13.3335C12.5702 13.4489 12.7152 13.5079 12.8899 13.5106C13.0646 13.5132 13.2123 13.4542 13.333 13.3335C13.4537 13.2128 13.514 13.0664 13.514 12.8943C13.514 12.7224 13.4537 12.5761 13.333 12.4554L10.6247 9.74704ZM10.0011 17.9168C8.90613 17.9168 7.8769 17.7091 6.91342 17.2935C5.94995 16.8779 5.1119 16.314 4.39926 15.6016C3.68662 14.8893 3.12238 14.0516 2.70655 13.0885C2.29085 12.1254 2.08301 11.0965 2.08301 10.0016C2.08301 8.90662 2.29079 7.87738 2.70634 6.91391C3.1219 5.95044 3.68586 5.11238 4.39822 4.39975C5.11058 3.68711 5.94829 3.12287 6.91134 2.70704C7.8744 2.29134 8.90335 2.0835 9.99822 2.0835C11.0932 2.0835 12.1225 2.29127 13.0859 2.70683C14.0494 3.12238 14.8875 3.68634 15.6001 4.3987C16.3127 5.11107 16.877 5.94877 17.2928 6.91183C17.7085 7.87489 17.9163 8.90384 17.9163 9.9987C17.9163 11.0937 17.7086 12.1229 17.293 13.0864C16.8775 14.0499 16.3135 14.8879 15.6011 15.6006C14.8888 16.3132 14.0511 16.8775 13.088 17.2933C12.125 17.709 11.096 17.9168 10.0011 17.9168ZM9.99967 16.6668C11.8469 16.6668 13.4198 16.0175 14.7184 14.7189C16.017 13.4203 16.6663 11.8474 16.6663 10.0002C16.6663 8.15294 16.017 6.58002 14.7184 5.28141C13.4198 3.9828 11.8469 3.3335 9.99967 3.3335C8.15245 3.3335 6.57954 3.9828 5.28092 5.28141C3.98231 6.58002 3.33301 8.15294 3.33301 10.0002C3.33301 11.8474 3.98231 13.4203 5.28092 14.7189C6.57954 16.0175 8.15245 16.6668 9.99967 16.6668Z" fill="#131313"/>
</g>
</svg>
