<svg width="18" height="18" viewBox="0 0 18 18" fill="none" xmlns="http://www.w3.org/2000/svg">
<path d="M9.83317 8.66699V5.66699C9.83317 5.43088 9.75331 5.23296 9.59359 5.07324C9.43387 4.91352 9.23595 4.83366 8.99984 4.83366C8.76373 4.83366 8.56581 4.91352 8.40609 5.07324C8.24637 5.23296 8.1665 5.43088 8.1665 5.66699V8.97949C8.1665 9.0906 8.18734 9.19824 8.229 9.30241C8.27067 9.40658 8.33317 9.50033 8.4165 9.58366L11.1665 12.3337C11.3193 12.4864 11.5137 12.5628 11.7498 12.5628C11.9859 12.5628 12.1804 12.4864 12.3332 12.3337C12.4859 12.1809 12.5623 11.9864 12.5623 11.7503C12.5623 11.5142 12.4859 11.3198 12.3332 11.167L9.83317 8.66699ZM8.99984 17.3337C7.84706 17.3337 6.76373 17.1149 5.74984 16.6774C4.73595 16.2399 3.854 15.6462 3.104 14.8962C2.354 14.1462 1.76025 13.2642 1.32275 12.2503C0.885254 11.2364 0.666504 10.1531 0.666504 9.00033C0.666504 7.84755 0.885254 6.76421 1.32275 5.75033C1.76025 4.73644 2.354 3.85449 3.104 3.10449C3.854 2.35449 4.73595 1.76074 5.74984 1.32324C6.76373 0.885742 7.84706 0.666992 8.99984 0.666992C10.1526 0.666992 11.2359 0.885742 12.2498 1.32324C13.2637 1.76074 14.1457 2.35449 14.8957 3.10449C15.6457 3.85449 16.2394 4.73644 16.6769 5.75033C17.1144 6.76421 17.3332 7.84755 17.3332 9.00033C17.3332 10.1531 17.1144 11.2364 16.6769 12.2503C16.2394 13.2642 15.6457 14.1462 14.8957 14.8962C14.1457 15.6462 13.2637 16.2399 12.2498 16.6774C11.2359 17.1149 10.1526 17.3337 8.99984 17.3337ZM8.99984 15.667C10.8471 15.667 12.42 15.0177 13.7186 13.7191C15.0172 12.4205 15.6665 10.8475 15.6665 9.00033C15.6665 7.1531 15.0172 5.58019 13.7186 4.28158C12.42 2.98296 10.8471 2.33366 8.99984 2.33366C7.15262 2.33366 5.5797 2.98296 4.28109 4.28158C2.98248 5.58019 2.33317 7.1531 2.33317 9.00033C2.33317 10.8475 2.98248 12.4205 4.28109 13.7191C5.5797 15.0177 7.15262 15.667 8.99984 15.667Z" fill="#5358CD"/>
</svg>
