
<svg width="36" height="36" viewBox="0 0 36 36" fill="none" xmlns="http://www.w3.org/2000/svg">
<rect width="36" height="36" rx="4" fill="#1B1C1D"/>
<path d="M24.2222 10C24.6937 10 25.1459 10.1873 25.4793 10.5207C25.8127 10.8541 26 11.3063 26 11.7778V24.2222C26 24.6937 25.8127 25.1459 25.4793 25.4793C25.1459 25.8127 24.6937 26 24.2222 26H11.7778C11.3063 26 10.8541 25.8127 10.5207 25.4793C10.1873 25.1459 10 24.6937 10 24.2222V11.7778C10 11.3063 10.1873 10.8541 10.5207 10.5207C10.8541 10.1873 11.3063 10 11.7778 10H24.2222ZM23.7778 23.7778V19.0667C23.7778 18.2981 23.4725 17.5611 22.929 17.0176C22.3856 16.4742 21.6485 16.1689 20.88 16.1689C20.1244 16.1689 19.2444 16.6311 18.8178 17.3244V16.3378H16.3378V23.7778H18.8178V19.3956C18.8178 18.7111 19.3689 18.1511 20.0533 18.1511C20.3834 18.1511 20.6999 18.2822 20.9333 18.5156C21.1667 18.749 21.2978 19.0655 21.2978 19.3956V23.7778H23.7778ZM13.4489 14.9422C13.8449 14.9422 14.2248 14.7849 14.5048 14.5048C14.7849 14.2248 14.9422 13.8449 14.9422 13.4489C14.9422 12.6222 14.2756 11.9467 13.4489 11.9467C13.0505 11.9467 12.6684 12.1049 12.3867 12.3867C12.1049 12.6684 11.9467 13.0505 11.9467 13.4489C11.9467 14.2756 12.6222 14.9422 13.4489 14.9422ZM14.6844 23.7778V16.3378H12.2222V23.7778H14.6844Z" fill="white"/>
</svg>
