
<svg width="36" height="36" viewBox="0 0 36 36" fill="none" xmlns="http://www.w3.org/2000/svg">
<rect width="36" height="36" rx="4" fill="#1B1C1D"/>
<path d="M18.8565 9.66699C19.794 9.66949 20.2698 9.67449 20.6807 9.68616L20.8423 9.69199C21.029 9.69866 21.2132 9.70699 21.4357 9.71699C22.3223 9.75866 22.9273 9.89866 23.4582 10.1045C24.0082 10.3162 24.4715 10.6028 24.9348 11.0653C25.3587 11.4818 25.6866 11.9857 25.8957 12.542C26.1015 13.0728 26.2415 13.6778 26.2832 14.5653C26.2932 14.787 26.3015 14.9712 26.3082 15.1587L26.3132 15.3203C26.3257 15.7303 26.3307 16.2062 26.3323 17.1437L26.3332 17.7653V18.857C26.3352 19.4648 26.3288 20.0727 26.314 20.6803L26.309 20.842C26.3023 21.0295 26.294 21.2137 26.284 21.4353C26.2423 22.3228 26.1007 22.927 25.8957 23.4587C25.6866 24.0149 25.3587 24.5189 24.9348 24.9353C24.5184 25.3592 24.0144 25.6871 23.4582 25.8962C22.9273 26.102 22.3223 26.242 21.4357 26.2837L20.8423 26.3087L20.6807 26.3137C20.2698 26.3253 19.794 26.3312 18.8565 26.3328L18.2348 26.3337H17.144C16.5359 26.3358 15.9278 26.3294 15.3198 26.3145L15.1582 26.3095C14.9603 26.302 14.7626 26.2934 14.5648 26.2837C13.6782 26.242 13.0732 26.102 12.5415 25.8962C11.9855 25.687 11.4819 25.3591 11.0657 24.9353C10.6414 24.519 10.3132 24.015 10.104 23.4587C9.89816 22.9278 9.75816 22.3228 9.71649 21.4353L9.69149 20.842L9.68732 20.6803C9.67196 20.0727 9.66502 19.4648 9.66649 18.857V17.1437C9.66418 16.5358 9.67029 15.928 9.68482 15.3203L9.69066 15.1587C9.69732 14.9712 9.70566 14.787 9.71566 14.5653C9.75732 13.6778 9.89732 13.0737 10.1032 12.542C10.3129 11.9855 10.6417 11.4815 11.0665 11.0653C11.4825 10.6416 11.9858 10.3137 12.5415 10.1045C13.0732 9.89866 13.6773 9.75866 14.5648 9.71699C14.7865 9.70699 14.9715 9.69866 15.1582 9.69199L15.3198 9.68699C15.9275 9.67219 16.5353 9.6658 17.1432 9.66783L18.8565 9.66699ZM17.9998 13.8337C16.8948 13.8337 15.8349 14.2726 15.0535 15.054C14.2721 15.8354 13.8332 16.8953 13.8332 18.0003C13.8332 19.1054 14.2721 20.1652 15.0535 20.9466C15.8349 21.728 16.8948 22.167 17.9998 22.167C19.1049 22.167 20.1647 21.728 20.9461 20.9466C21.7275 20.1652 22.1665 19.1054 22.1665 18.0003C22.1665 16.8953 21.7275 15.8354 20.9461 15.054C20.1647 14.2726 19.1049 13.8337 17.9998 13.8337ZM17.9998 15.5003C18.3281 15.5003 18.6532 15.5649 18.9566 15.6905C19.2599 15.8161 19.5355 16.0002 19.7677 16.2323C19.9999 16.4644 20.1841 16.7399 20.3098 17.0432C20.4355 17.3465 20.5002 17.6716 20.5002 17.9999C20.5003 18.3282 20.4357 18.6533 20.3101 18.9566C20.1845 19.26 20.0004 19.5356 19.7683 19.7678C19.5362 20 19.2606 20.1842 18.9573 20.3099C18.654 20.4356 18.329 20.5003 18.0007 20.5003C17.3376 20.5003 16.7017 20.2369 16.2329 19.7681C15.764 19.2993 15.5007 18.6634 15.5007 18.0003C15.5007 17.3373 15.764 16.7014 16.2329 16.2326C16.7017 15.7637 17.3376 15.5003 18.0007 15.5003M22.3757 12.5837C22.0994 12.5837 21.8344 12.6934 21.6391 12.8888C21.4437 13.0841 21.334 13.3491 21.334 13.6253C21.334 13.9016 21.4437 14.1665 21.6391 14.3619C21.8344 14.5572 22.0994 14.667 22.3757 14.667C22.6519 14.667 22.9169 14.5572 23.1122 14.3619C23.3076 14.1665 23.4173 13.9016 23.4173 13.6253C23.4173 13.3491 23.3076 13.0841 23.1122 12.8888C22.9169 12.6934 22.6519 12.5837 22.3757 12.5837Z" fill="white"/>
</svg>
