<svg width="36" height="36" viewBox="0 0 36 36" fill="none" xmlns="http://www.w3.org/2000/svg">
<rect width="36" height="36" rx="4" fill="#1B1C1D"/>
<path d="M25.417 9.66699H10.5837C10.3405 9.66699 10.1074 9.76357 9.93548 9.93548C9.76357 10.1074 9.66699 10.3405 9.66699 10.5837V25.417C9.66699 25.6601 9.76357 25.8933 9.93548 26.0652C10.1074 26.2371 10.3405 26.3337 10.5837 26.3337H18.567V19.8753H16.4003V17.3753H18.567V15.5003C18.5221 15.0601 18.5741 14.6154 18.7193 14.1974C18.8644 13.7794 19.0993 13.3983 19.4074 13.0807C19.7155 12.7631 20.0893 12.5167 20.5027 12.3589C20.9161 12.201 21.359 12.1355 21.8003 12.167C22.4489 12.1625 23.0973 12.1959 23.742 12.267V14.517H22.417C21.367 14.517 21.167 15.017 21.167 15.742V17.3503H23.667L23.342 19.8503H21.167V26.3337H25.417C25.5374 26.3337 25.6566 26.3099 25.7678 26.2639C25.879 26.2178 25.9801 26.1503 26.0652 26.0652C26.1503 25.9801 26.2178 25.879 26.2639 25.7678C26.3099 25.6566 26.3337 25.5374 26.3337 25.417V10.5837C26.3337 10.4633 26.3099 10.3441 26.2639 10.2329C26.2178 10.1217 26.1503 10.0206 26.0652 9.93548C25.9801 9.85036 25.879 9.78284 25.7678 9.73677C25.6566 9.6907 25.5374 9.66699 25.417 9.66699Z" fill="white"/>
</svg>
