<svg width="44" height="44" viewBox="0 0 44 44" fill="none" xmlns="http://www.w3.org/2000/svg">
<rect width="44.0002" height="44.0002" rx="10.3529" fill="url(#paint0_linear_245_28227)"/>
<path d="M17.0705 22.0785C17.0705 19.3495 19.2816 17.1366 22.0098 17.1366C24.7381 17.1366 26.9503 19.3495 26.9503 22.0785C26.9503 24.8076 24.7381 27.0205 22.0098 27.0205C19.2816 27.0205 17.0705 24.8076 17.0705 22.0785ZM14.3997 22.0785C14.3997 26.2828 17.8068 29.6908 22.0098 29.6908C26.2129 29.6908 29.6199 26.2828 29.6199 22.0785C29.6199 17.8743 26.2129 14.4663 22.0098 14.4663C17.8068 14.4663 14.3997 17.8743 14.3997 22.0785ZM28.1427 14.1644C28.1426 14.5163 28.2467 14.8603 28.442 15.1529C28.6373 15.4455 28.915 15.6736 29.2399 15.8084C29.5648 15.9432 29.9224 15.9786 30.2674 15.9101C30.6124 15.8416 30.9294 15.6723 31.1782 15.4236C31.427 15.1749 31.5965 14.858 31.6653 14.5129C31.734 14.1678 31.699 13.8101 31.5645 13.485C31.43 13.1599 31.2022 12.882 30.9098 12.6864C30.6174 12.4908 30.2736 12.3863 29.9219 12.3862H29.9212C29.4497 12.3864 28.9976 12.5738 28.6641 12.9072C28.3306 13.2406 28.1431 13.6928 28.1427 14.1644ZM16.0224 34.1454C14.5775 34.0796 13.7921 33.8389 13.2702 33.6355C12.5783 33.366 12.0846 33.0451 11.5655 32.5266C11.0464 32.0081 10.7251 31.5147 10.4569 30.8226C10.2535 30.3008 10.0128 29.5149 9.94711 28.0696C9.87526 26.507 9.86091 26.0375 9.86091 22.0787C9.86091 18.1198 9.87644 17.6517 9.94711 16.0877C10.0129 14.6424 10.2554 13.8581 10.4569 13.3347C10.7263 12.6426 11.0471 12.1488 11.5655 11.6295C12.0838 11.1103 12.5771 10.7889 13.2702 10.5207C13.7919 10.3172 14.5775 10.0764 16.0224 10.0107C17.5846 9.93883 18.0538 9.92448 22.0098 9.92448C25.9658 9.92448 26.4355 9.94001 27.999 10.0107C29.4439 10.0765 30.228 10.319 30.7512 10.5207C31.4431 10.7889 31.9368 11.111 32.4559 11.6295C32.975 12.1481 33.2951 12.6426 33.5645 13.3347C33.7679 13.8566 34.0086 14.6424 34.0743 16.0877C34.1461 17.6517 34.1605 18.1198 34.1605 22.0787C34.1605 26.0375 34.1461 26.5057 34.0743 28.0696C34.0085 29.5149 33.7666 30.3005 33.5645 30.8226C33.2951 31.5147 32.9743 32.0086 32.4559 32.5266C31.9376 33.0446 31.4431 33.366 30.7512 33.6355C30.2295 33.839 29.4439 34.0797 27.999 34.1454C26.4368 34.2173 25.9676 34.2317 22.0098 34.2317C18.0521 34.2317 17.5841 34.2173 16.0224 34.1454ZM15.8997 7.34368C14.322 7.41555 13.2439 7.66579 12.3024 8.03226C11.3273 8.4107 10.5019 8.91842 9.67702 9.74219C8.85218 10.566 8.34592 11.3929 7.96758 12.3683C7.60122 13.3107 7.35105 14.3885 7.27921 15.9666C7.20617 17.5473 7.18945 18.0526 7.18945 22.0785C7.18945 26.1044 7.20617 26.6098 7.27921 28.1904C7.35105 29.7687 7.60122 30.8464 7.96758 31.7888C8.34592 32.7635 8.8523 33.5915 9.67702 34.4149C10.5017 35.2383 11.3273 35.7453 12.3024 36.1248C13.2456 36.4913 14.322 36.7415 15.8997 36.8134C17.4807 36.8853 17.9851 36.9032 22.0098 36.9032C26.0345 36.9032 26.5397 36.8865 28.1199 36.8134C29.6978 36.7415 30.7752 36.4913 31.7173 36.1248C32.6917 35.7453 33.5178 35.2387 34.3426 34.4149C35.1674 33.5911 35.6726 32.7635 36.052 31.7888C36.4184 30.8464 36.6697 29.7686 36.7404 28.1904C36.8123 26.6086 36.829 26.1044 36.829 22.0785C36.829 18.0526 36.8123 17.5473 36.7404 15.9666C36.6686 14.3884 36.4184 13.3101 36.052 12.3683C35.6726 11.3935 35.1661 10.5673 34.3426 9.74219C33.5191 8.91711 32.6917 8.4107 31.7184 8.03226C30.7752 7.66579 29.6977 7.41437 28.1211 7.34368C26.5409 7.27181 26.0357 7.25391 22.011 7.25391C17.9863 7.25391 17.4807 7.27063 15.8997 7.34368Z" fill="white"/>
<defs>
<linearGradient id="paint0_linear_245_28227" x1="43.1545" y1="44.0002" x2="-0.845682" y2="-1.18436e-06" gradientUnits="userSpaceOnUse">
<stop stop-color="#FBE18A"/>
<stop offset="0.21" stop-color="#FCBB45"/>
<stop offset="0.38" stop-color="#F75274"/>
<stop offset="0.52" stop-color="#D53692"/>
<stop offset="0.74" stop-color="#8F39CE"/>
<stop offset="1" stop-color="#5B4FE9"/>
</linearGradient>
</defs>
</svg>
