<svg width="44" height="44" viewBox="0 0 44 44" fill="none" xmlns="http://www.w3.org/2000/svg">
<rect width="43.9998" height="43.9998" rx="10.3529" fill="#006699"/>
<path d="M15.1847 34.0079V18.0039H9.86991V34.0079H15.1852H15.1847ZM12.5284 15.8192C14.3814 15.8192 15.535 14.5903 15.535 13.0545C15.5003 11.4837 14.3814 10.2891 12.5636 10.2891C10.7447 10.2891 9.55664 11.4837 9.55664 13.0543C9.55664 14.5901 10.7098 15.8191 12.4936 15.8191H12.528L12.5284 15.8192ZM18.1265 34.0079H23.4408V25.0715C23.4408 24.5938 23.4755 24.1149 23.6159 23.7737C23.9999 22.8177 24.8744 21.828 26.3429 21.828C28.2656 21.828 29.0351 23.2955 29.0351 25.4471V34.0079H34.3494V24.8317C34.3494 19.9162 31.7278 17.6287 28.2312 17.6287C25.3644 17.6287 24.1054 19.2324 23.4059 20.3247H23.4412V18.0045H18.1267C18.1961 19.5058 18.1263 34.0085 18.1263 34.0085L18.1265 34.0079Z" fill="white"/>
</svg>
