<svg width="18" height="18" viewBox="0 0 14 18" fill="none" xmlns="http://www.w3.org/2000/svg">
<path d="M7.00016 9.00033C7.4585 9.00033 7.85086 8.83713 8.17725 8.51074C8.50364 8.18435 8.66683 7.79199 8.66683 7.33366C8.66683 6.87533 8.50364 6.48296 8.17725 6.15658C7.85086 5.83019 7.4585 5.66699 7.00016 5.66699C6.54183 5.66699 6.14947 5.83019 5.82308 6.15658C5.49669 6.48296 5.3335 6.87533 5.3335 7.33366C5.3335 7.79199 5.49669 8.18435 5.82308 8.51074C6.14947 8.83713 6.54183 9.00033 7.00016 9.00033ZM7.00016 15.1253C8.69461 13.5698 9.95155 12.1566 10.771 10.8857C11.5904 9.61491 12.0002 8.48644 12.0002 7.50033C12.0002 5.98644 11.5175 4.74685 10.5522 3.78158C9.58697 2.8163 8.40294 2.33366 7.00016 2.33366C5.59738 2.33366 4.41336 2.8163 3.44808 3.78158C2.4828 4.74685 2.00016 5.98644 2.00016 7.50033C2.00016 8.48644 2.40989 9.61491 3.22933 10.8857C4.04877 12.1566 5.30572 13.5698 7.00016 15.1253ZM7.00016 17.3337C4.76405 15.4309 3.09391 13.6635 1.98975 12.0316C0.885579 10.3996 0.333496 8.88921 0.333496 7.50033C0.333496 5.41699 1.00363 3.75727 2.34391 2.52116C3.68419 1.28505 5.23627 0.666992 7.00016 0.666992C8.76405 0.666992 10.3161 1.28505 11.6564 2.52116C12.9967 3.75727 13.6668 5.41699 13.6668 7.50033C13.6668 8.88921 13.1147 10.3996 12.0106 12.0316C10.9064 13.6635 9.23627 15.4309 7.00016 17.3337Z" fill="#5358CD"/>
</svg>
