<svg width="152" height="52" viewBox="0 0 152 52" fill="none" xmlns="http://www.w3.org/2000/svg">
<path d="M49.6328 14.9136H53.9601V21.4132C56.1583 20.6577 58.7685 20.1087 61.4014 20.1087C65.9806 20.1087 68.4535 21.9848 68.4535 26.15C68.4535 30.3152 65.6833 32.0767 60.9668 32.0767H49.6328V14.9136ZM53.9601 24.8456V28.599H60.5775C62.9585 28.599 64.1262 27.8901 64.1262 26.1274C64.1262 24.3646 63.2104 23.5877 61.0122 23.5877C58.9512 23.5877 56.5249 24.114 53.9601 24.8468V24.8456Z" fill="white"/>
<path d="M86.8383 28.3937L87.7088 31.5062C85.5332 32.0552 82.0537 32.3989 79.0543 32.3989C72.4141 32.3989 69.5293 30.5909 69.5293 26.2431C69.5293 21.8953 72.7807 20.1099 78.7796 20.1099C84.3439 20.1099 87.9834 21.5516 87.9834 25.3504C87.9834 25.8994 87.9142 26.9293 87.8688 27.2265H73.8112C74.2004 28.6682 75.6655 28.988 79.4435 28.988C82.9242 28.988 85.4425 28.6216 86.8395 28.3925L86.8383 28.3937ZM73.7873 24.984H83.7015C83.4496 23.5876 82.3045 22.9933 78.6184 22.9933C75.4124 22.9933 74.1312 23.4742 73.7873 24.984Z" fill="white"/>
<path d="M106.369 28.3937L107.239 31.5062C105.063 32.0552 101.584 32.3989 98.5845 32.3989C91.9444 32.3989 89.0596 30.5909 89.0596 26.2431C89.0596 21.8953 92.311 20.1099 98.3099 20.1099C103.874 20.1099 107.514 21.5516 107.514 25.3504C107.514 25.8994 107.444 26.9293 107.399 27.2265H93.3414C93.7307 28.6682 95.1958 28.988 98.9738 28.988C102.454 28.988 104.973 28.6216 106.37 28.3925L106.369 28.3937ZM93.3176 24.984H103.232C102.98 23.5876 101.835 22.9933 98.1487 22.9933C94.9427 22.9933 93.6615 23.4742 93.3176 24.984Z" fill="white"/>
<path d="M113.374 32.0782H109.047V14.915H113.374V32.0782Z" fill="white"/>
<path d="M119.694 18.9188H115.367V15.3491H119.694V18.9188ZM115.367 20.407H119.694V32.0779H115.367V20.407Z" fill="white"/>
<path d="M126.013 24.1593H129.379L134.6 20.4059H140.369L133.02 25.9209L140.667 32.0767H134.851L129.311 27.6824H126.014V32.0767H121.687V14.9136H126.014V24.1593H126.013Z" fill="white"/>
<path d="M36.9245 26.9019C26.6425 26.193 18.228 17.7826 17.5176 7.50455C17.5021 7.27898 17.6728 7.07968 17.8985 7.06058C22.9971 6.64287 28.2402 8.38533 32.1424 12.2844C36.0433 16.1834 37.7867 21.4251 37.3687 26.5211C37.3508 26.7467 37.1502 26.9174 36.9245 26.9019Z" fill="white"/>
<path d="M31.47 38.4788C31.3578 38.5217 31.2599 38.5611 31.1476 38.6041C24.3917 38.3176 18.2351 35.3925 13.6906 30.8478C9.05883 26.2183 6.10116 19.9085 5.89697 12.996L5.9113 12.9816C7.47312 11.4206 9.25346 10.2033 11.152 9.33442C11.4135 9.21508 11.7132 9.38575 11.7454 9.67099C12.4249 15.6466 15.1891 21.0542 19.2787 25.1418C23.366 29.2271 28.7798 31.9899 34.7573 32.6702C35.0438 32.7024 35.2134 33.002 35.094 33.2633C34.2295 35.1514 33.0199 36.9213 31.47 38.4776V38.4788Z" fill="#FFD500"/>
<path d="M22.4682 43.3131C18.4837 44.3144 14.2221 43.9373 10.4441 42.1817C10.3904 42.1567 10.3307 42.1435 10.2722 42.1435H2.23139C2.00093 42.1435 1.81347 41.9562 1.81347 41.7258V33.7977C1.81347 33.7368 1.79914 33.6759 1.77287 33.621C-0.0862721 29.7518 -0.4827 25.3587 0.581203 21.2639C0.68628 20.8593 1.2642 20.8486 1.3848 21.2496C2.86901 26.2108 5.58907 30.7782 9.37541 34.5686L9.39571 34.5889C13.1295 38.3209 17.6168 41.0157 22.4885 42.5111C22.8885 42.634 22.8742 43.2117 22.4682 43.3131Z" fill="white"/>
<path d="M142.964 17.1456C142.964 15.4019 144.142 14.0557 146.353 14.0557C148.563 14.0557 149.734 15.4019 149.734 17.1456C149.734 18.8892 148.569 20.2486 146.353 20.2486C144.136 20.2486 142.964 18.8892 142.964 17.1456ZM149 17.1456C149 15.6108 147.962 14.7885 146.353 14.7885C144.743 14.7885 143.692 15.6167 143.692 17.1456C143.692 18.6744 144.75 19.5157 146.353 19.5157C147.955 19.5157 149 18.6803 149 17.1456ZM146.36 15.6644C147.498 15.6644 148.212 16.0285 148.306 16.9367H147.336C147.249 16.5261 146.771 16.4593 146.36 16.4593C145.842 16.4593 145.356 16.5607 145.356 17.1527C145.356 17.7446 145.84 17.8461 146.36 17.8461C146.771 17.8461 147.249 17.7793 147.336 17.3687H148.306C148.212 18.2781 147.498 18.641 146.36 18.641C145.133 18.641 144.399 18.2173 144.399 17.1527C144.399 16.0881 145.133 15.6644 146.36 15.6644Z" fill="white"/>
</svg>
