<svg width="350" height="120" viewBox="0 0 350 120" fill="none" xmlns="http://www.w3.org/2000/svg">
<path d="M114.286 34.418H124.25V49.4171C129.312 47.6737 135.322 46.4068 141.385 46.4068C151.929 46.4068 157.623 50.7363 157.623 60.3483C157.623 69.9602 151.244 74.0253 140.384 74.0253H114.286V34.418ZM124.25 57.338V65.9998H139.488C144.97 65.9998 147.659 64.3638 147.659 60.2959C147.659 56.2281 145.55 54.4351 140.489 54.4351C135.743 54.4351 130.156 55.6497 124.25 57.3408V57.338Z" fill="#FFD500"/>
<path d="M199.957 65.5228L201.961 72.7055C196.952 73.9724 188.94 74.7656 182.033 74.7656C166.743 74.7656 160.101 70.5932 160.101 60.5598C160.101 50.5265 167.587 46.4062 181.401 46.4062C194.213 46.4062 202.594 49.7333 202.594 58.4997C202.594 59.7666 202.434 62.1434 202.33 62.8292H169.96C170.856 66.1562 174.23 66.8943 182.929 66.8943C190.944 66.8943 196.743 66.0488 199.96 65.52L199.957 65.5228ZM169.905 57.6542H192.734C192.154 54.4318 189.517 53.0603 181.03 53.0603C173.647 53.0603 170.697 54.1702 169.905 57.6542Z" fill="#FFD500"/>
<path d="M244.928 65.5228L246.932 72.7055C241.922 73.9724 233.91 74.7656 227.004 74.7656C211.714 74.7656 205.071 70.5932 205.071 60.5598C205.071 50.5265 212.558 46.4062 226.371 46.4062C239.184 46.4062 247.564 49.7333 247.564 58.4997C247.564 59.7666 247.405 62.1434 247.3 62.8292H214.931C215.827 66.1562 219.201 66.8943 227.9 66.8943C235.915 66.8943 241.713 66.0488 244.93 65.52L244.928 65.5228ZM214.876 57.6542H237.705C237.125 54.4318 234.488 53.0603 226 53.0603C218.618 53.0603 215.668 54.1702 214.876 57.6542Z" fill="#FFD500"/>
<path d="M261.058 74.0292H251.094V34.4219H261.058V74.0292Z" fill="#FFD500"/>
<path d="M275.612 43.6614H265.647V35.4238H275.612V43.6614ZM265.647 47.0958H275.612V74.0286H265.647V47.0958Z" fill="#FFD500"/>
<path d="M290.162 55.7544H297.912L309.933 47.0925H323.218L306.295 59.8195L323.903 74.0253H310.513L297.756 63.8845H290.164V74.0253H280.2V34.418H290.164V55.7544H290.162Z" fill="#FFD500"/>
<path d="M85.0233 62.0817C61.3477 60.4457 41.9722 41.0373 40.3362 17.3186C40.3005 16.7981 40.6937 16.3382 41.2133 16.2941C52.9535 15.3302 65.0265 19.3512 74.0117 28.349C82.9942 37.3468 87.0085 49.4429 86.0461 61.2031C86.0049 61.7236 85.543 62.1175 85.0233 62.0817Z" fill="#FFD500"/>
<path d="M72.4635 88.7963C72.205 88.8954 71.9796 88.9863 71.7211 89.0854C56.1646 88.4244 41.9884 81.674 31.5239 71.1862C20.8587 60.5029 14.0483 45.9418 13.5781 29.9898L13.6111 29.9568C17.2074 26.3543 21.3069 23.5451 25.6785 21.5401C26.2807 21.2647 26.9708 21.6585 27.045 22.3168C28.6095 36.1068 34.9745 48.5858 44.3914 58.0187C53.8028 67.4462 66.2689 73.822 80.0328 75.3918C80.6926 75.4662 81.083 76.1575 80.8081 76.7606C78.8175 81.1177 76.0323 85.2021 72.4635 88.7935V88.7963Z" fill="#FFD500"/>
<path d="M51.736 99.954C42.5611 102.265 32.7482 101.394 24.0489 97.3431C23.9252 97.2853 23.7877 97.255 23.653 97.255H5.13806C4.60742 97.255 4.17575 96.8226 4.17575 96.291V77.9953C4.17575 77.8548 4.14276 77.7143 4.08227 77.5876C-0.198653 68.6587 -1.11148 58.5207 1.3383 49.0713C1.58025 48.1376 2.91099 48.1128 3.18869 49.0382C6.60628 60.4872 12.8696 71.0273 21.5881 79.7744L21.6349 79.8212C30.2325 88.4334 40.565 94.6523 51.7828 98.1032C52.7039 98.3869 52.6709 99.7199 51.736 99.954Z" fill="#FFD500"/>
<path d="M329.193 39.5641C329.193 35.5403 331.907 32.4336 336.996 32.4336C342.086 32.4336 344.783 35.5403 344.783 39.5641C344.783 43.5879 342.099 46.7249 336.996 46.7249C331.893 46.7249 329.193 43.5879 329.193 39.5641ZM343.092 39.5641C343.092 36.0223 340.703 34.1247 336.996 34.1247C333.29 34.1247 330.871 36.036 330.871 39.5641C330.871 43.0922 333.307 45.0338 336.996 45.0338C340.686 45.0338 343.092 43.1059 343.092 39.5641ZM337.013 36.1462C339.633 36.1462 341.277 36.9862 341.494 39.0821H339.262C339.061 38.1347 337.959 37.9805 337.013 37.9805C335.82 37.9805 334.701 38.2145 334.701 39.5806C334.701 40.9466 335.817 41.1807 337.013 41.1807C337.959 41.1807 339.061 41.0265 339.262 40.0791H341.494C341.277 42.1777 339.633 43.0151 337.013 43.0151C334.189 43.0151 332.498 42.0373 332.498 39.5806C332.498 37.1239 334.189 36.1462 337.013 36.1462Z" fill="#FFD500"/>
</svg>
