<svg width="40" height="40" viewBox="0 0 40 40" fill="none" xmlns="http://www.w3.org/2000/svg">
<rect width="40" height="40" rx="8" fill="#131313"/>
<mask id="mask0_237_12394" style="mask-type:alpha" maskUnits="userSpaceOnUse" x="4" y="4" width="32" height="32">
<rect x="4" y="4" width="32" height="32" fill="#D9D9D9"/>
</mask>
<g mask="url(#mask0_237_12394)">
<path d="M9.6665 27.5126C9.38317 27.5126 9.14573 27.4167 8.95417 27.225C8.76239 27.0334 8.6665 26.7959 8.6665 26.5123C8.6665 26.229 8.76239 25.9915 8.95417 25.8C9.14573 25.6086 9.38317 25.513 9.6665 25.513H30.3332C30.6165 25.513 30.8539 25.6088 31.0455 25.8003C31.2373 25.9921 31.3332 26.2297 31.3332 26.5133C31.3332 26.7966 31.2373 27.0341 31.0455 27.2256C30.8539 27.417 30.6165 27.5126 30.3332 27.5126H9.6665ZM9.6665 21C9.38317 21 9.14573 20.9041 8.95417 20.7123C8.76239 20.5205 8.6665 20.283 8.6665 19.9996C8.6665 19.7161 8.76239 19.4786 8.95417 19.2873C9.14573 19.0957 9.38317 19 9.6665 19H30.3332C30.6165 19 30.8539 19.0959 31.0455 19.2876C31.2373 19.4794 31.3332 19.717 31.3332 20.0003C31.3332 20.2839 31.2373 20.5213 31.0455 20.7126C30.8539 20.9042 30.6165 21 30.3332 21H9.6665ZM9.6665 14.487C9.38317 14.487 9.14573 14.3912 8.95417 14.1996C8.76239 14.0079 8.6665 13.7702 8.6665 13.4866C8.6665 13.2033 8.76239 12.9659 8.95417 12.7743C9.14573 12.583 9.38317 12.4873 9.6665 12.4873H30.3332C30.6165 12.4873 30.8539 12.5832 31.0455 12.775C31.2373 12.9665 31.3332 13.2041 31.3332 13.4876C31.3332 13.771 31.2373 14.0084 31.0455 14.2C30.8539 14.3913 30.6165 14.487 30.3332 14.487H9.6665Z" fill="white"/>
</g>
</svg>
