
<svg width="24" height="24" viewBox="0 0 24 24" fill="none" xmlns="http://www.w3.org/2000/svg">
<path d="M11.9974 18.2975C12.5331 18.2975 12.9674 17.8715 12.9674 17.346C12.9674 16.8205 12.5331 16.3945 11.9974 16.3945C11.4616 16.3945 11.0273 16.8205 11.0273 17.346C11.0273 17.8715 11.4616 18.2975 11.9974 18.2975Z" fill="#E03131"/>
<path fill-rule="evenodd" clip-rule="evenodd" d="M11.9971 9.00012C12.3989 9.00012 12.7246 9.31962 12.7246 9.71375V14.7769C12.7246 15.171 12.3989 15.4905 11.9971 15.4905C11.5953 15.4905 11.2695 15.171 11.2695 14.7769L11.2695 9.71375C11.2695 9.31962 11.5953 9.00012 11.9971 9.00012Z" fill="#E03131"/>
<path fill-rule="evenodd" clip-rule="evenodd" d="M10.479 2.88718C11.1404 1.70427 12.8648 1.70427 13.5262 2.88718L22.7869 19.4638C23.4144 20.597 22.5822 22 21.2568 22H2.73842C2.73241 22 2.7264 21.9999 2.72042 21.9998C1.42435 21.9803 0.576858 20.6087 1.21995 19.4609M2.74837 20.5307H21.2568C21.4428 20.5307 21.5653 20.3279 21.4777 20.1682C21.4775 20.1679 21.4778 20.1685 21.4777 20.1682L12.2194 3.59599C12.125 3.42711 11.8802 3.42711 11.7857 3.59599L2.52613 20.1708C2.43837 20.3273 2.54863 20.5307 2.74837 20.5307Z" fill="#E03131"/>
</svg>
