<svg width="28" height="28" viewBox="0 0 28 28" fill="none" xmlns="http://www.w3.org/2000/svg">
<mask id="mask0_255_3229" style="mask-type:alpha" maskUnits="userSpaceOnUse" x="0" y="0" width="28" height="28">
<rect width="28" height="28" fill="#D9D9D9"/>
</mask>
<g mask="url(#mask0_255_3229)">
<path d="M6.19205 23.9167C5.60269 23.9167 5.10384 23.7125 4.69551 23.3042C4.28717 22.8958 4.08301 22.397 4.08301 21.8076V6.19237C4.08301 5.60301 4.28717 5.10417 4.69551 4.69583C5.10384 4.2875 5.60269 4.08333 6.19205 4.08333H11.3837C11.4765 3.42825 11.7659 2.87564 12.252 2.4255C12.7381 1.97517 13.3207 1.75 13.9997 1.75C14.6787 1.75 15.2612 1.97517 15.7473 2.4255C16.2335 2.87564 16.5229 3.42825 16.6156 4.08333H21.8073C22.3967 4.08333 22.8955 4.2875 23.3038 4.69583C23.7122 5.10417 23.9163 5.60301 23.9163 6.19237V21.8076C23.9163 22.397 23.7122 22.8958 23.3038 23.3042C22.8955 23.7125 22.3967 23.9167 21.8073 23.9167H6.19205ZM13.9997 5.07062C14.2525 5.07062 14.4615 4.98799 14.6268 4.82271C14.792 4.65743 14.8747 4.4484 14.8747 4.19562C14.8747 3.94285 14.792 3.73382 14.6268 3.56854C14.4615 3.40326 14.2525 3.32062 13.9997 3.32062C13.7469 3.32062 13.5379 3.40326 13.3726 3.56854C13.2073 3.73382 13.1247 3.94285 13.1247 4.19562C13.1247 4.4484 13.2073 4.65743 13.3726 4.82271C13.5379 4.98799 13.7469 5.07062 13.9997 5.07062ZM5.83301 21.0493C6.88301 20.0187 8.10315 19.2069 9.49342 18.6139C10.8837 18.0208 12.3858 17.7243 13.9997 17.7243C15.6136 17.7243 17.1156 18.0208 18.5059 18.6139C19.8962 19.2069 21.1163 20.0187 22.1663 21.0493V6.19237C22.1663 6.10254 22.1289 6.02029 22.054 5.94562C21.9794 5.87076 21.8971 5.83333 21.8073 5.83333H6.19205C6.10222 5.83333 6.01997 5.87076 5.9453 5.94562C5.87044 6.02029 5.83301 6.10254 5.83301 6.19237V21.0493ZM13.9997 15.2116C15.0526 15.2116 15.9478 14.8429 16.6853 14.1056C17.4227 13.3681 17.7913 12.4728 17.7913 11.4199C17.7913 10.367 17.4227 9.47178 16.6853 8.73425C15.9478 7.99692 15.0526 7.62825 13.9997 7.62825C12.9468 7.62825 12.0515 7.99692 11.314 8.73425C10.5767 9.47178 10.208 10.367 10.208 11.4199C10.208 12.4728 10.5767 13.3681 11.314 14.1056C12.0515 14.8429 12.9468 15.2116 13.9997 15.2116ZM7.51563 22.1667H20.4837V21.9199C19.5622 21.0972 18.5515 20.4839 17.4515 20.0801C16.3514 19.6762 15.2008 19.4743 13.9997 19.4743C12.8136 19.4743 11.6686 19.6744 10.5647 20.0745C9.46086 20.4747 8.44449 21.0823 7.51563 21.8975V22.1667ZM13.9997 13.4616C13.4387 13.4616 12.9582 13.2615 12.5583 12.8613C12.1581 12.4614 11.958 11.9809 11.958 11.4199C11.958 10.8589 12.1581 10.3785 12.5583 9.9785C12.9582 9.57833 13.4387 9.37825 13.9997 9.37825C14.5606 9.37825 15.0411 9.57833 15.4411 9.9785C15.8413 10.3785 16.0413 10.8589 16.0413 11.4199C16.0413 11.9809 15.8413 12.4614 15.4411 12.8613C15.0411 13.2615 14.5606 13.4616 13.9997 13.4616Z" fill="#FFD500"/>
</g>
</svg>
