<svg width="28" height="28" viewBox="0 0 28 28" fill="none" xmlns="http://www.w3.org/2000/svg">
<mask id="mask0_255_3237" style="mask-type:alpha" maskUnits="userSpaceOnUse" x="0" y="0" width="28" height="28">
<rect width="28" height="28" fill="#D9D9D9"/>
</mask>
<g mask="url(#mask0_255_3237)">
<path d="M13.5455 13.8359L11.4674 15.4414C11.3484 15.5311 11.2313 15.5344 11.1161 15.4513C11.0012 15.3681 10.9649 15.2604 11.0073 15.128L11.798 12.5288L9.69291 10.9185C9.58685 10.8287 9.55715 10.719 9.60382 10.5891C9.65027 10.4595 9.73958 10.3947 9.87173 10.3947H12.4735L13.2639 7.83465C13.3063 7.70229 13.4002 7.6361 13.5455 7.6361C13.6908 7.6361 13.7846 7.70229 13.827 7.83465L14.6174 10.3947H17.1998C17.3319 10.3947 17.4245 10.4595 17.4775 10.5891C17.5306 10.719 17.5041 10.8287 17.398 10.9185L15.2735 12.5288L16.0639 15.128C16.1063 15.2604 16.07 15.3681 15.955 15.4513C15.8401 15.5344 15.723 15.5311 15.6038 15.4414L13.5455 13.8359ZM13.5455 24.8841L8.04823 26.6242C7.67299 26.7564 7.32871 26.7054 7.01541 26.4712C6.70211 26.237 6.54545 25.9283 6.54545 25.545V18.0015C5.73939 17.1596 5.11364 16.1863 4.66818 15.0816C4.22273 13.977 4 12.7982 4 11.545C4 8.882 4.92517 6.62534 6.7755 4.77501C8.62583 2.92468 10.8825 1.99951 13.5455 1.99951C16.2084 1.99951 18.4651 2.92468 20.3154 4.77501C22.1657 6.62534 23.0909 8.882 23.0909 11.545C23.0909 12.7982 22.8682 13.977 22.4227 15.0816C21.9773 16.1863 21.3515 17.1596 20.5455 18.0015V25.545C20.5455 25.9283 20.3888 26.237 20.0755 26.4712C19.7622 26.7054 19.4179 26.7564 19.0427 26.6242L13.5455 24.8841ZM13.5455 19.1813C15.6667 19.1813 17.4697 18.4389 18.9545 16.9541C20.4394 15.4692 21.1818 13.6662 21.1818 11.545C21.1818 9.42375 20.4394 7.62072 18.9545 6.13588C17.4697 4.65103 15.6667 3.9086 13.5455 3.9086C11.4242 3.9086 9.62121 4.65103 8.13636 6.13588C6.65152 7.62072 5.90909 9.42375 5.90909 11.545C5.90909 13.6662 6.65152 15.4692 8.13636 16.9541C9.62121 18.4389 11.4242 19.1813 13.5455 19.1813ZM8.45455 24.3161L13.5455 22.9505L18.6364 24.3161V19.5876C17.9103 20.0609 17.1157 20.4297 16.2525 20.694C15.3892 20.9583 14.4868 21.0904 13.5455 21.0904C12.6041 21.0904 11.7017 20.9583 10.8384 20.694C9.97524 20.4297 9.18064 20.0609 8.45455 19.5876V24.3161Z" fill="#FFD500"/>
</g>
</svg>
