<svg width="28" height="28" viewBox="0 0 28 28" fill="none" xmlns="http://www.w3.org/2000/svg">
<mask id="mask0_255_3246" style="mask-type:alpha" maskUnits="userSpaceOnUse" x="0" y="0" width="28" height="28">
<rect width="28" height="28" fill="#D9D9D9"/>
</mask>
<g mask="url(#mask0_255_3246)">
<path d="M7.51804 19.6381C7.17407 19.4467 6.90447 19.1885 6.70925 18.8634C6.51403 18.5383 6.41642 18.1736 6.41642 17.7693V12.7078L4.08775 11.4201C3.89622 11.3108 3.75564 11.1779 3.666 11.0213C3.57617 10.865 3.53125 10.6912 3.53125 10.4998C3.53125 10.3085 3.57617 10.1348 3.666 9.97864C3.75564 9.82231 3.89622 9.6895 4.08775 9.58022L12.9952 4.72689C13.1533 4.639 13.3162 4.57444 13.4838 4.53322C13.6514 4.49219 13.8234 4.47168 13.9997 4.47168C14.1761 4.47168 14.3481 4.49219 14.5157 4.53322C14.6833 4.57444 14.8464 4.6389 15.0048 4.7266L25.065 10.2018C25.2445 10.299 25.3821 10.4304 25.478 10.5961C25.5737 10.762 25.6215 10.9408 25.6215 11.1328V18.0161C25.6215 18.264 25.5376 18.4719 25.3698 18.6397C25.202 18.8073 24.9941 18.8911 24.7462 18.8911C24.4981 18.8911 24.2903 18.8073 24.1229 18.6397C23.9553 18.4719 23.8715 18.264 23.8715 18.0161V11.4693L21.5831 12.7078V17.7693C21.5831 18.1736 21.4855 18.5383 21.2902 18.8634C21.095 19.1885 20.8254 19.4467 20.4815 19.6381L15.0072 22.5976C14.8471 22.6872 14.6833 22.7527 14.5157 22.7939C14.3481 22.8349 14.1761 22.8554 13.9997 22.8554C13.8234 22.8554 13.6514 22.8349 13.4838 22.7939C13.3162 22.7527 13.1524 22.6872 12.9923 22.5976L7.51804 19.6381ZM13.865 14.7494C13.9175 14.7794 13.9643 14.7943 14.0053 14.7943C14.0465 14.7943 14.0933 14.7794 14.1456 14.7494L21.9803 10.5001L14.1456 6.26193C14.0933 6.23199 14.0465 6.21701 14.0053 6.21701C13.9643 6.21701 13.9175 6.23199 13.865 6.26193L6.01917 10.5001L13.865 14.7494ZM13.8539 21.083C13.9062 21.1129 13.9548 21.1279 13.9997 21.1279C14.0447 21.1279 14.0933 21.1129 14.1456 21.083L19.6648 18.1013C19.7247 18.0639 19.7677 18.021 19.7937 17.9723C19.82 17.9237 19.8331 17.862 19.8331 17.7871V13.6411L15.025 16.2818C14.8649 16.3715 14.699 16.4369 14.5271 16.4781C14.355 16.5194 14.1792 16.54 13.9997 16.54C13.8203 16.54 13.6445 16.5194 13.4724 16.4781C13.3005 16.4369 13.1346 16.3715 12.9745 16.2818L8.16642 13.6411V17.7871C8.16642 17.847 8.17954 17.9051 8.20579 17.9613C8.23185 18.0173 8.27482 18.0639 8.33471 18.1013L13.8539 21.083Z" fill="#FFD500"/>
</g>
</svg>
