<svg id="logo" xmlns="http://www.w3.org/2000/svg" viewBox="0 0 243.36 70"><defs><style>.cls-1{fill:#005487;}</style></defs><path class="cls-1" d="M62,43a2.35,2.35,0,0,0-2.88.93L54,41.86v-.08a1.24,1.24,0,0,0-.47-1,18,18,0,0,0-.31-12.31L59.08,26A2.43,2.43,0,0,0,62,27a2.37,2.37,0,1,0-3.28-1.71l-5.84,2.42a17.84,17.84,0,0,0-4.52-6.24.74.74,0,0,0,.08-.4,1.21,1.21,0,0,0-1.94-1,22.91,22.91,0,0,0-2.88-1.64L46,12.61a2.29,2.29,0,0,0,2.66-1.4,2.38,2.38,0,0,0-4.37-1.88,2.37,2.37,0,0,0,.93,2.89L42.8,18A17.93,17.93,0,0,0,31,17.53a1.87,1.87,0,0,0-1.55-.86h-.31l-1.88-4.52a2.45,2.45,0,0,0,.93-2.88,2.38,2.38,0,1,0-4.37,1.88,2.33,2.33,0,0,0,2.66,1.39l1.88,4.52a1.77,1.77,0,0,0-.78,1.49.62.62,0,0,0,.09.39,17.78,17.78,0,0,0-8,8.66l-5.78-2.41a2.28,2.28,0,0,0-1.39-2.66,2.37,2.37,0,1,0-1.88,4.36A2.35,2.35,0,0,0,13.48,26l5.78,2.42A18.6,18.6,0,0,0,18,34.47a.92.92,0,0,0-.62.93,1,1,0,0,0,.62.93,20.66,20.66,0,0,0,1.18,5.22L13.41,44A2.43,2.43,0,0,0,10.53,43a2.37,2.37,0,1,0,1.88,4.36,2.3,2.3,0,0,0,1.39-2.65l5.78-2.42a16.57,16.57,0,0,0,2.5,4.05,1.49,1.49,0,0,0-.15.62,1.23,1.23,0,0,0,1.24,1.25,1.58,1.58,0,0,0,.55-.16A17.45,17.45,0,0,0,29,51.52L26.53,57.3a2.28,2.28,0,0,0-2.65,1.4,2.37,2.37,0,1,0,4.36,1.88,2.34,2.34,0,0,0-.93-2.88l2.41-5.78a17.44,17.44,0,0,0,6.56,1.24,18.46,18.46,0,0,0,6.55-1.24l2.42,5.85a2.43,2.43,0,0,0-.93,2.88,2.37,2.37,0,1,0,4.36-1.88A2.32,2.32,0,0,0,46,57.37l-2.41-5.85a18.22,18.22,0,0,0,9-8.5h.15a1.08,1.08,0,0,0,.94-.47l5.07,2.11a2.28,2.28,0,0,0,1.39,2.66,2.51,2.51,0,0,0,3.13-1.25A2.36,2.36,0,0,0,62,43ZM29.74,20.41h0l3.43,8.1-3.5,1.95a2.84,2.84,0,0,0-.77-.55Zm5.78,15.37-.62,1.55L34,36.4Zm-2.26,0-3-2.88,5,2.1Zm3,.31,1.79,4.29L35.52,38Zm1.32,5a2.14,2.14,0,0,0-.24.93v.31l-4.45,2,2.26-5.54Zm1.64-1H39l-1.79-4.36,4,1.63-1.39,2.82A1.15,1.15,0,0,0,39.26,40.14ZM37.38,35l6.16-2.57h0l-2.19,4.21Zm6.4-1.09-.46,3.59L42.14,37Zm1-1.1c.09,0,.09,0,.16-.09l6.46,8-7.17-3Zm-1.55-1.16-6.16,2.57,3-7.33h.39a1.53,1.53,0,0,0,.62-.15l2.42,4a2.05,2.05,0,0,0-.31.93Zm-3.92-5.07-3,7.33-2.11-5L39,26.36C39.11,26.43,39.18,26.5,39.33,26.58Zm-3.81,7.64L30.14,32v-.31a.85.85,0,0,0-.09-.46l3.43-1.88Zm-7.18-.7h.09l1.09,3.83-3,1.24,1.71-5.07Zm.87-.23c.08,0,.08-.08.15-.08l3.12,3L30.29,37Zm3.9,3.5,1.48,1.4-2.35,5.62-1.7-5.93Zm4.58,6.32a1.8,1.8,0,0,0,1.49.77h.31l2,4.83-8.35-3.59Zm2.59.39a2.07,2.07,0,0,0,.78-1.17h1.7l-.7,5.47Zm.78-2a2.08,2.08,0,0,0-.62-1l1.39-2.81,1.4.55-.4,3.19Zm3-2.88,6.63,2.73-7,.09Zm1.49-6.4a.85.85,0,0,0,.15-.62v-.08l3.43-1.4,2.57,9.9Zm-.16-1.48-.24-.24,2-7.88,1.71,6.62Zm1-8.9h0l-2.11,8.42h-.15l-2.42-4a1.91,1.91,0,0,0,.62-1.39c0-.24-.08-.4-.08-.62Zm-7.88,3.68-4.68,2.57-3.34-8,.24-.24,7.72,4.52a1.46,1.46,0,0,0-.08.62A1.33,1.33,0,0,1,38.56,25.57Zm-9.68-5.23h0L28,29.86a1.68,1.68,0,0,0-1.24.78l-3.59-1.49Zm-2.42,11v.55L19.6,34.53l3.12-4.83Zm-6.93,4.22,7.18-2.81a1.61,1.61,0,0,0,.55.55l-1.88,5.78-.78.31-5.22-3.67C19.53,35.62,19.53,35.55,19.53,35.55Zm6.62,4.12,3.59-1.48L31.45,44,26,40.21Zm5,5.16-6.78,1.48a.67.67,0,0,0-.31-.31l1.64-5Zm.22.86h0l-.71,1.88-5-.62Zm.78.38a.86.86,0,0,0,.62-.24l6.62,2.88-7.88-1.08Zm10.69,2.42h0l.78-6.16,7.79-.15Zm9.9-8.11L49.94,29.77l2.5-1A16.85,16.85,0,0,1,52.75,40.38ZM52.13,28l-2.41,1-1.8-6.78A15.25,15.25,0,0,1,52.13,28ZM46,20.65c0,.09-.08.24-.08.31v.24l-4.14,2.42-.31-.31,1.7-4.21A16.26,16.26,0,0,1,46,20.65Zm-9.74-3a17.43,17.43,0,0,1,6.24,1.18L40.83,23h-.39a2.18,2.18,0,0,0-1.49.62L31.23,19.1a1.14,1.14,0,0,0,.08-.55V18.3A22.54,22.54,0,0,1,36.3,17.61Zm-8.2,2.11c0,.08.09.08.09.15l-5.78,8.9L20.46,28A17,17,0,0,1,28.1,19.72ZM22,29.46,19.07,34a15.26,15.26,0,0,1,1.17-5.22ZM19.07,36.4l4.76,3.34-3.68,1.49A14.58,14.58,0,0,1,19.07,36.4Zm5.53,3.9.4.24-1.71,5.22a.57.57,0,0,0-.4.09A18.09,18.09,0,0,1,20.55,42Zm-.15,7.26,5.93.77-1,2.5A14.87,14.87,0,0,1,24.45,47.56Zm5.6,3.58,1.09-2.72,10,1.24a1.09,1.09,0,0,0,1,.78l.24.62A16.55,16.55,0,0,1,30.05,51.14Zm13.27-.31-.25-.62a1.14,1.14,0,0,0,.32-.77V49.2l8.26-6.09A17.23,17.23,0,0,1,43.32,50.83Z"/><path class="cls-1" d="M29.67,8a2.12,2.12,0,0,1,.31.62,1.63,1.63,0,0,1,.16.62l4.76-3.5a2.36,2.36,0,0,1,2.81,0l4.76,3.5c.09-.24.09-.4.16-.62A5.08,5.08,0,0,1,42.94,8a3.68,3.68,0,0,1,1.48-1.4L39.59,3A5.18,5.18,0,0,0,33,3L28.14,6.61A3.51,3.51,0,0,1,29.67,8Z"/><path class="cls-1" d="M43,62a1.89,1.89,0,0,1-.31-.62,1.63,1.63,0,0,1-.16-.62l-4.76,3.5a2.36,2.36,0,0,1-2.81,0l-4.76-3.5c-.09.24-.09.4-.16.62a5.08,5.08,0,0,1-.31.62,3.68,3.68,0,0,1-1.48,1.4L33.09,67a5.18,5.18,0,0,0,6.62,0l4.83-3.59A3.13,3.13,0,0,1,43,62Z"/><path class="cls-1" d="M12.51,20.56l.71.24a1.36,1.36,0,0,1,.55.32l.86-5.85a2.3,2.3,0,0,1,1.95-1.95l5.85-.86c-.09-.16-.24-.4-.31-.56s-.16-.46-.24-.7a3.53,3.53,0,0,1,.08-2L16,10a5.21,5.21,0,0,0-4.67,4.68l-.87,5.93A4.69,4.69,0,0,1,12.51,20.56Z"/><path class="cls-1" d="M60.08,49.35l-.71-.24a1.47,1.47,0,0,1-.55-.31L58,54.65a2.3,2.3,0,0,1-2,1.94l-5.85.87a4.29,4.29,0,0,1,.31.55c.09.24.16.46.25.71a3.58,3.58,0,0,1-.09,2l5.93-.86a5.23,5.23,0,0,0,4.68-4.68l.86-5.93A3.53,3.53,0,0,1,60.08,49.35Z"/><path class="cls-1" d="M9.94,41.31a1.87,1.87,0,0,1,.62-.15L7.06,36.4a2.36,2.36,0,0,1,0-2.81l3.5-4.76c-.24-.09-.39-.09-.62-.16s-.46-.24-.62-.31a3.74,3.74,0,0,1-1.4-1.48L4.34,31.71a5.16,5.16,0,0,0,0,6.62l3.58,4.83a4.41,4.41,0,0,1,1.4-1.48A1.55,1.55,0,0,1,9.94,41.31Z"/><path class="cls-1" d="M68.27,31.65l-3.58-4.83a4.44,4.44,0,0,1-1.4,1.49,2.56,2.56,0,0,1-.62.31,1.87,1.87,0,0,1-.62.15l3.5,4.76a2.37,2.37,0,0,1,0,2.82l-3.5,4.76c.24.08.39.08.62.15s.46.24.62.31a3.74,3.74,0,0,1,1.4,1.48l3.58-4.82A5.1,5.1,0,0,0,68.27,31.65Z"/><path class="cls-1" d="M14.68,54.66l-.86-5.84c-.15.08-.39.24-.55.31l-.71.24a3.58,3.58,0,0,1-2-.09l.86,5.93a5.22,5.22,0,0,0,4.67,4.68l5.94.86a4.55,4.55,0,0,1-.09-2c.09-.25.16-.47.24-.71a1.39,1.39,0,0,1,.31-.55l-5.84-.87A2.16,2.16,0,0,1,14.68,54.66Z"/><path class="cls-1" d="M58,15.27l.86,5.85c.16-.09.4-.25.55-.32l.71-.24a3.57,3.57,0,0,1,2,.09l-.86-5.93A5.21,5.21,0,0,0,56.6,10l-5.94-.86a4.41,4.41,0,0,1,.09,2c-.09.25-.15.47-.24.71a1.39,1.39,0,0,1-.31.55l5.85.87A2.26,2.26,0,0,1,58,15.27Z"/><g id="YENI"><path class="cls-1" d="M89.7,23.67H88.16l-.76-2.16H84.07l-.72,2.16H81.81L85,15.2h1.59ZM87,20.37,85.85,17a3.6,3.6,0,0,1-.1-.53h0a2.63,2.63,0,0,1-.12.53l-1.16,3.38Z"/><path class="cls-1" d="M96.89,15.82l-4.64,6.66h4.59v1.19H90.28V23l4.66-6.62H90.65V15.22h6.24Z"/><path class="cls-1" d="M97.65,18.84h6.43A2.7,2.7,0,0,0,103.2,17a2.85,2.85,0,0,0-2-.69,4.08,4.08,0,0,0-2.4.71v-1.3a5,5,0,0,1,2.55-.62,4.06,4.06,0,0,1,3.09,1.16,4.36,4.36,0,0,1,1.12,3.17,4.61,4.61,0,0,1-1.12,3.17,3.81,3.81,0,0,1-3,1.26,3.41,3.41,0,0,1-2.85-1.26A6.11,6.11,0,0,1,97.65,18.84ZM104.08,20H99.17a2.87,2.87,0,0,0,.65,1.9,2.2,2.2,0,0,0,1.71.71,2.45,2.45,0,0,0,1.78-.71A3.1,3.1,0,0,0,104.08,20Z"/><path class="cls-1" d="M113.67,23.67H112l-1.34-2.26a5.06,5.06,0,0,0-.36-.54,2.07,2.07,0,0,0-.37-.36,2.42,2.42,0,0,0-.39-.21,1.46,1.46,0,0,0-.49-.06h-.57v3.43h-1.39V15.2h2.77a4.38,4.38,0,0,1,1.11.14,2.49,2.49,0,0,1,.88.43,2,2,0,0,1,.58.71,2.26,2.26,0,0,1,.21,1,2.48,2.48,0,0,1-.14.82,1.91,1.91,0,0,1-.38.68,2.35,2.35,0,0,1-.58.5,3,3,0,0,1-.78.31h0a1.82,1.82,0,0,1,.4.3,2.57,2.57,0,0,1,.33.33c.1.1.2.24.31.37s.2.32.32.49Zm-5.14-7.32V19.1h1.18a1.68,1.68,0,0,0,.6-.11,1.24,1.24,0,0,0,.48-.29,1.11,1.11,0,0,0,.31-.47,1.56,1.56,0,0,0,.12-.6,1.2,1.2,0,0,0-.38-.95,1.64,1.64,0,0,0-1.1-.34h-1.21Z"/><path class="cls-1" d="M114.66,23.67V15.2h2.69a3.22,3.22,0,0,1,2,.53,1.69,1.69,0,0,1,.72,1.4,2,2,0,0,1-.41,1.26,2.32,2.32,0,0,1-1.13.76v0a2.2,2.2,0,0,1,1.4.63,2,2,0,0,1,.52,1.42,2.15,2.15,0,0,1-.86,1.76,3.4,3.4,0,0,1-2.16.67h-2.72Zm1.39-7.33v2.41H117a1.85,1.85,0,0,0,1.15-.34,1.19,1.19,0,0,0,.42-1c0-.72-.49-1.08-1.45-1.08Zm0,3.53v2.68h1.19a1.77,1.77,0,0,0,1.21-.37,1.21,1.21,0,0,0,.43-1c0-.88-.6-1.31-1.83-1.31Z"/><path class="cls-1" d="M128.9,23.67h-1.53l-.76-2.16h-3.33l-.73,2.16H121l3.17-8.47h1.59Zm-2.65-3.3L125.07,17a3.6,3.6,0,0,1-.1-.53h0a2.63,2.63,0,0,1-.12.53l-1.15,3.38Z"/><path class="cls-1" d="M135.06,15.22l-2.78,5.38v3.07h-1.39V20.61l-2.71-5.41h1.6l1.66,3.62c0,.05.08.21.17.48h0a2.92,2.92,0,0,1,.19-.48l1.74-3.62h1.5Z"/><path class="cls-1" d="M141.75,23.32a5.14,5.14,0,0,1-2.38.5,3.91,3.91,0,0,1-3-1.15,4.26,4.26,0,0,1-1.1-3.06,4.43,4.43,0,0,1,1.24-3.27,4.29,4.29,0,0,1,3.16-1.26,5.37,5.37,0,0,1,2,.34v1.4a3.63,3.63,0,0,0-1.88-.5,3,3,0,0,0-2.22.88,3.21,3.21,0,0,0-.85,2.35,3,3,0,0,0,.8,2.22,2.76,2.76,0,0,0,2.08.83,3.69,3.69,0,0,0,2.07-.57v1.29Z"/><path class="cls-1" d="M150.31,23.67h-1.54L148,21.51h-3.33L144,23.67h-1.54l3.18-8.47h1.59Zm-2.68-3.3L146.46,17a3.6,3.6,0,0,1-.1-.53h0a2.63,2.63,0,0,1-.12.53l-1.16,3.38Z"/><path class="cls-1" d="M158.64,23.67H157.1l-4-6.23a2.83,2.83,0,0,1-.26-.48h0a6.72,6.72,0,0,1,.06,1.15v5.56h-1.37V15.2h1.64l3.9,6.07a3.42,3.42,0,0,1,.31.52h0a7.87,7.87,0,0,1-.05-1.14V15.2h1.34v8.47Z"/><path class="cls-1" d="M170.61,23.67H169l-1.35-2.26a5.06,5.06,0,0,0-.36-.54,2,2,0,0,0-.36-.36,2.52,2.52,0,0,0-.4-.21,1.37,1.37,0,0,0-.48-.06h-.57v3.43h-1.4V15.2h2.78a4.38,4.38,0,0,1,1.11.14,2.45,2.45,0,0,1,.87.43,2,2,0,0,1,.59.71,2.26,2.26,0,0,1,.21,1,2.48,2.48,0,0,1-.14.82,2.28,2.28,0,0,1-.38.68,2.23,2.23,0,0,1-.59.5,2.82,2.82,0,0,1-.77.31h0a1.75,1.75,0,0,1,.39.3,1.72,1.72,0,0,1,.33.33,2.89,2.89,0,0,1,.31.37c.11.14.21.32.33.49Zm-5.14-7.32V19.1h1.17a1.7,1.7,0,0,0,.61-.11,1.32,1.32,0,0,0,.48-.29,1.11,1.11,0,0,0,.31-.47,1.56,1.56,0,0,0,.12-.6,1.2,1.2,0,0,0-.38-.95,1.64,1.64,0,0,0-1.1-.34h-1.21Z"/><path class="cls-1" d="M176.34,23.67h-4.75V15.2h4.56v1.19H173v2.4h2.91V20H173v2.5h3.35Z"/><path class="cls-1" d="M177.46,23.34V21.89a1.55,1.55,0,0,0,.46.31,3.76,3.76,0,0,0,.57.24,4.87,4.87,0,0,0,.6.16,3.87,3.87,0,0,0,.56,0,2.4,2.4,0,0,0,1.31-.29,1,1,0,0,0,.43-.87.93.93,0,0,0-.14-.51,1.27,1.27,0,0,0-.4-.4,3.77,3.77,0,0,0-.6-.34l-.76-.35c-.29-.15-.55-.31-.81-.47a3.26,3.26,0,0,1-.64-.51,2,2,0,0,1-.58-1.49,1.84,1.84,0,0,1,.27-1,2.25,2.25,0,0,1,.71-.73,3.64,3.64,0,0,1,1-.43,5.54,5.54,0,0,1,1.14-.13,4.81,4.81,0,0,1,1.93.29v1.38a3.07,3.07,0,0,0-1.85-.52,4.44,4.44,0,0,0-.62.05,2.23,2.23,0,0,0-.55.19,1.48,1.48,0,0,0-.4.35,1,1,0,0,0,0,1,1.38,1.38,0,0,0,.35.38,3.47,3.47,0,0,0,.55.33c.22.1.46.22.76.34s.57.31.82.48a4.46,4.46,0,0,1,.69.57,2,2,0,0,1,.47.69,1.93,1.93,0,0,1,.17.85,2,2,0,0,1-.26,1.08,2.13,2.13,0,0,1-.7.73,3.29,3.29,0,0,1-1,.4,5.84,5.84,0,0,1-1.21.12c-.14,0-.31,0-.52,0l-.63-.08a4.15,4.15,0,0,1-.63-.16A2,2,0,0,1,177.46,23.34Z"/><path class="cls-1" d="M185.82,20.6v3.07h-1.4V15.2H187a3.41,3.41,0,0,1,2.26.67,2.36,2.36,0,0,1,.81,1.92,2.57,2.57,0,0,1-.84,2,3.17,3.17,0,0,1-2.26.78h-1.14Zm0-4.23v3.09h.92a2.1,2.1,0,0,0,1.38-.41,1.52,1.52,0,0,0,.46-1.18c0-1-.59-1.5-1.74-1.5Z"/><path class="cls-1" d="M198,20.25c0,2.38-1.12,3.57-3.38,3.57s-3.23-1.14-3.23-3.43V15.22h1.4V20.1c0,1.65.64,2.48,1.93,2.48s1.86-.79,1.86-2.4v-5H198v5Z"/><path class="cls-1" d="M200,23.67V15.2h2.69a3.2,3.2,0,0,1,2,.53,1.67,1.67,0,0,1,.73,1.4,2,2,0,0,1-.42,1.26,2.25,2.25,0,0,1-1.12.76v0a2.23,2.23,0,0,1,1.4.63,2,2,0,0,1,.52,1.42,2.16,2.16,0,0,1-.87,1.76,3.37,3.37,0,0,1-2.15.67H200Zm1.4-7.33v2.41h.91a1.86,1.86,0,0,0,1.16-.34,1.19,1.19,0,0,0,.41-1c0-.72-.48-1.08-1.45-1.08Zm0,3.53v2.68h1.19a1.77,1.77,0,0,0,1.21-.37,1.21,1.21,0,0,0,.43-1c0-.88-.61-1.31-1.83-1.31Z"/><path class="cls-1" d="M212,23.67h-4.69V15.2h1.4v7.28H212v1.19Z"/><path class="cls-1" d="M213.88,14.42a.8.8,0,0,1-.51-.19.63.63,0,0,1-.21-.48.64.64,0,0,1,.21-.48.68.68,0,0,1,.51-.19.77.77,0,0,1,.52.19.61.61,0,0,1,.21.48.63.63,0,0,1-.21.48A.69.69,0,0,1,213.88,14.42Zm.75,9.25h-1.45V15.2h1.45Z"/><path class="cls-1" d="M223.11,23.67h-1.83l-2.95-3.87a3.22,3.22,0,0,1-.2-.29h0v4.18h-1.4V15.22h1.4v4h0a2.17,2.17,0,0,1,.2-.29l2.85-3.69h1.69l-3.33,4Z"/><path class="cls-1" d="M231.05,23.67h-1.54l-.76-2.16h-3.33l-.72,2.16h-1.54l3.18-8.47h1.58Zm-2.68-3.3L227.2,17a3.6,3.6,0,0,1-.1-.53h0A2.63,2.63,0,0,1,227,17l-1.16,3.38Z"/><path class="cls-1" d="M231.82,23.34V21.89a1.74,1.74,0,0,0,.47.31,3.76,3.76,0,0,0,.57.24,4.08,4.08,0,0,0,.6.16,3.86,3.86,0,0,0,.55,0,2.35,2.35,0,0,0,1.31-.29,1,1,0,0,0,.44-.87,1,1,0,0,0-.14-.51,1.52,1.52,0,0,0-.4-.4,3.77,3.77,0,0,0-.6-.34l-.76-.35c-.3-.15-.55-.31-.81-.47a3,3,0,0,1-.64-.51,2.18,2.18,0,0,1-.43-.64,2,2,0,0,1-.16-.85,1.85,1.85,0,0,1,.28-1,2.15,2.15,0,0,1,.71-.73,3.64,3.64,0,0,1,1-.43,5.52,5.52,0,0,1,1.13-.13,4.86,4.86,0,0,1,1.94.29v1.38a3.11,3.11,0,0,0-1.85-.52,4.32,4.32,0,0,0-.62.05,2,2,0,0,0-.55.19,1.23,1.23,0,0,0-.4.35,1,1,0,0,0,0,1,1.33,1.33,0,0,0,.34.38,4.7,4.7,0,0,0,.55.33l.76.34c.3.16.57.31.83.48a4.46,4.46,0,0,1,.69.57,2.12,2.12,0,0,1,.47.69,1.93,1.93,0,0,1,.17.85,2.11,2.11,0,0,1-.26,1.08,2.07,2.07,0,0,1-.71.73,3.23,3.23,0,0,1-1,.4,5.84,5.84,0,0,1-1.21.12c-.14,0-.31,0-.52,0l-.64-.08a4.34,4.34,0,0,1-.62-.16A2.1,2.1,0,0,1,231.82,23.34Z"/><path class="cls-1" d="M240.22,23.67h-1.45V15.2h1.45Z"/><path class="cls-1" d="M89.28,39.19H87.64L86.3,36.93a4.05,4.05,0,0,0-.36-.53,1.62,1.62,0,0,0-.37-.37,1.79,1.79,0,0,0-.39-.2,1.43,1.43,0,0,0-.48-.07h-.57v3.43h-1.4V30.72h2.78a4.36,4.36,0,0,1,1.1.14,2.67,2.67,0,0,1,.88.43,2.14,2.14,0,0,1,.59.71,2.41,2.41,0,0,1,.2,1,2.54,2.54,0,0,1-.14.83,2.11,2.11,0,0,1-.37.67,2.49,2.49,0,0,1-1.37.81v0a1.59,1.59,0,0,1,.4.29,3.43,3.43,0,0,1,.33.33,4.56,4.56,0,0,1,.31.38c.1.14.2.31.33.48Zm-5.14-7.31v2.74h1.18a1.68,1.68,0,0,0,.6-.1,1.26,1.26,0,0,0,.48-.3,1.07,1.07,0,0,0,.31-.46,1.62,1.62,0,0,0,.12-.61,1.18,1.18,0,0,0-.38-.94,1.58,1.58,0,0,0-1.1-.35H84.14Z"/><path class="cls-1" d="M89.71,34.36h6.44a2.74,2.74,0,0,0-.88-1.88,2.9,2.9,0,0,0-2-.69,4,4,0,0,0-2.39.71V31.21a4.87,4.87,0,0,1,2.55-.63,4.06,4.06,0,0,1,3.09,1.16,4.38,4.38,0,0,1,1.12,3.17,4.66,4.66,0,0,1-1.12,3.18,3.82,3.82,0,0,1-3,1.26,3.43,3.43,0,0,1-2.84-1.26A5.86,5.86,0,0,1,89.71,34.36Zm6.44,1.17H91.23a2.83,2.83,0,0,0,.66,1.9,2.15,2.15,0,0,0,1.71.71,2.37,2.37,0,0,0,1.77-.71A2.9,2.9,0,0,0,96.15,35.53Z"/><path class="cls-1" d="M102.68,39.33A4.22,4.22,0,0,1,101,39a3.71,3.71,0,0,1-1.28-.88,4.15,4.15,0,0,1-.81-1.35,5,5,0,0,1-.29-1.74,5.64,5.64,0,0,1,.29-1.84,4,4,0,0,1,.83-1.42,3.57,3.57,0,0,1,1.31-.9,4.76,4.76,0,0,1,1.73-.31,4.33,4.33,0,0,1,1.62.31,3.72,3.72,0,0,1,2.07,2.23,5,5,0,0,1,.29,1.72,5.57,5.57,0,0,1-.41,2.2,3.87,3.87,0,0,1-1.18,1.51l2.45,1.78h-2.14L104,39.16c-.21.05-.42.1-.63.13A3.83,3.83,0,0,1,102.68,39.33Zm.07-7.5a2.41,2.41,0,0,0-1,.22,2.38,2.38,0,0,0-.83.64,2.88,2.88,0,0,0-.53,1,4.44,4.44,0,0,0,0,2.57,2.78,2.78,0,0,0,.52,1,2.28,2.28,0,0,0,.81.64,2.22,2.22,0,0,0,1,.22,2.68,2.68,0,0,0,1.09-.2,2.26,2.26,0,0,0,.82-.61,2.47,2.47,0,0,0,.52-1,4.5,4.5,0,0,0,.19-1.31,4.71,4.71,0,0,0-.17-1.35,3.23,3.23,0,0,0-.5-1,2.15,2.15,0,0,0-.81-.62A3.12,3.12,0,0,0,102.75,31.83Z"/><path class="cls-1" d="M107.77,34.36h6.44a2.79,2.79,0,0,0-.88-1.88,2.9,2.9,0,0,0-2-.69,4,4,0,0,0-2.39.71V31.21a4.87,4.87,0,0,1,2.55-.63,4.08,4.08,0,0,1,3.09,1.16,4.38,4.38,0,0,1,1.12,3.17,4.66,4.66,0,0,1-1.12,3.18,3.85,3.85,0,0,1-3,1.26,3.43,3.43,0,0,1-2.84-1.26A5.86,5.86,0,0,1,107.77,34.36Zm6.44,1.17h-4.92a2.83,2.83,0,0,0,.66,1.9,2.15,2.15,0,0,0,1.7.71,2.4,2.4,0,0,0,1.78-.71A2.9,2.9,0,0,0,114.21,35.53Z"/><path class="cls-1" d="M126.35,39.19H125V33.72c0-.44,0-1,.09-1.63h0a4.94,4.94,0,0,1-.22.79l-2.52,6.33h-1l-2.53-6.28c-.07-.19-.14-.47-.23-.84h0c0,.34,0,.89,0,1.65v5.47h-1.3V30.74h2l2.22,5.64a6.49,6.49,0,0,1,.33,1h0a5.7,5.7,0,0,1,.36-1l2.26-5.6h1.91v8.43Z"/><path class="cls-1" d="M128,38.86V37.41a1.77,1.77,0,0,0,.47.32,5.89,5.89,0,0,0,.56.24,3.39,3.39,0,0,0,.61.15,2.8,2.8,0,0,0,.55.05,2.35,2.35,0,0,0,1.31-.29A1,1,0,0,0,132,37a.94.94,0,0,0-.14-.52,1.48,1.48,0,0,0-.39-.4,3.48,3.48,0,0,0-.61-.34l-.75-.35c-.3-.15-.56-.31-.82-.46a3.3,3.3,0,0,1-.63-.52,2.06,2.06,0,0,1-.43-.64A2,2,0,0,1,128,33a1.88,1.88,0,0,1,.28-1,2.19,2.19,0,0,1,.7-.72,3.48,3.48,0,0,1,1-.43,4.94,4.94,0,0,1,1.14-.14,4.77,4.77,0,0,1,1.93.29v1.38a3.13,3.13,0,0,0-1.84-.52,3.18,3.18,0,0,0-.62.06,1.49,1.49,0,0,0-.55.19,1.1,1.1,0,0,0-.4.34.87.87,0,0,0-.16.52.92.92,0,0,0,.12.48,1.38,1.38,0,0,0,.35.38,2.86,2.86,0,0,0,.55.33l.76.34a9.54,9.54,0,0,1,.83.49,3.55,3.55,0,0,1,.69.57,2,2,0,0,1,.46.69,1.89,1.89,0,0,1,.18.84,2.17,2.17,0,0,1-.26,1.09,2.32,2.32,0,0,1-.71.72,3.2,3.2,0,0,1-1,.4,5.77,5.77,0,0,1-1.21.12c-.13,0-.31,0-.51,0s-.42,0-.64-.08a4.34,4.34,0,0,1-.62-.16A2.1,2.1,0,0,1,128,38.86Z"/><path class="cls-1" d="M142,39.19h-1.54L139.67,37h-3.33l-.73,2.15h-1.53l3.17-8.47h1.59Zm-2.67-3.29-1.18-3.38A4.12,4.12,0,0,1,138,32h0a2.59,2.59,0,0,1-.12.54l-1.15,3.38Z"/><path class="cls-1" d="M147.81,39.19h-4.7V30.72h1.4V38h3.28v1.19Z"/><path class="cls-1" d="M153.05,30a.85.85,0,0,1-.52-.19.66.66,0,0,1-.2-.49.63.63,0,0,1,.2-.48.69.69,0,0,1,.52-.19.77.77,0,0,1,.52.19.61.61,0,0,1,.2.48.66.66,0,0,1-.2.49A.8.8,0,0,1,153.05,30Zm.74,9.24h-1.45V30.72h1.45Z"/><path class="cls-1" d="M163.05,39.19h-1.53l-4-6.23a3.2,3.2,0,0,1-.26-.48h0a8.68,8.68,0,0,1,.05,1.16v5.55h-1.36V30.72h1.64l3.9,6.07a5.8,5.8,0,0,1,.31.52h0a9.44,9.44,0,0,1-.05-1.14V30.72H163v8.47Z"/><path class="cls-1" d="M171.54,39.19h-1.83l-3-3.86a3,3,0,0,1-.2-.3h0v4.18h-1.4V30.74h1.4v4h0a3.09,3.09,0,0,1,.2-.29l2.85-3.69h1.69L168,34.79Z"/><path class="cls-1" d="M173.21,30a.8.8,0,0,1-.51-.19.67.67,0,0,1-.21-.49.64.64,0,0,1,.21-.48.66.66,0,0,1,.51-.19.77.77,0,0,1,.52.19.61.61,0,0,1,.21.48.67.67,0,0,1-.21.49A.73.73,0,0,1,173.21,30Zm.76,9.24h-1.45V30.72H174Z"/><path class="cls-1" d="M175.66,38.86V37.41a1.77,1.77,0,0,0,.47.32,5.15,5.15,0,0,0,.57.24,3.1,3.1,0,0,0,.6.15,2.8,2.8,0,0,0,.55.05,2.35,2.35,0,0,0,1.31-.29,1,1,0,0,0,.44-.86,1,1,0,0,0-.14-.52,1.69,1.69,0,0,0-.4-.4,3.77,3.77,0,0,0-.6-.34l-.76-.35c-.3-.15-.55-.31-.81-.46a3.37,3.37,0,0,1-.64-.52,2.06,2.06,0,0,1-.43-.64,2,2,0,0,1-.16-.84,1.88,1.88,0,0,1,.28-1,2.12,2.12,0,0,1,.71-.72,3.36,3.36,0,0,1,1-.43,5.73,5.73,0,0,1,3.07.15v1.38a3.18,3.18,0,0,0-1.85-.52,3.26,3.26,0,0,0-.62.06,1.49,1.49,0,0,0-.55.19,1.1,1.1,0,0,0-.4.34.86.86,0,0,0-.15.52.84.84,0,0,0,.12.48,1.33,1.33,0,0,0,.34.38,3.64,3.64,0,0,0,.55.33l.76.34a8.25,8.25,0,0,1,.83.49,3.55,3.55,0,0,1,.69.57,2,2,0,0,1,.47.69,1.88,1.88,0,0,1,.17.84,2.17,2.17,0,0,1-.26,1.09,2.12,2.12,0,0,1-.71.72,3.2,3.2,0,0,1-1,.4,5.68,5.68,0,0,1-1.2.12c-.14,0-.31,0-.52,0s-.41,0-.64-.08a4.34,4.34,0,0,1-.62-.16A2.1,2.1,0,0,1,175.66,38.86Zm4,1.8c0,.76-.57,1.14-1.7,1.14a3.62,3.62,0,0,1-.49,0v-.66c.18,0,.31,0,.42,0,.51,0,.79-.16.79-.49s-.24-.43-.71-.43a1.13,1.13,0,0,0-.22,0V39.19h.81v.55a1.28,1.28,0,0,1,.81.24A.83.83,0,0,1,179.66,40.66Z"/><path class="cls-1" d="M189.58,39.19h-1.53L187.29,37h-3.35l-.72,2.15h-1.54l3.18-8.47h1.58Zm-2.67-3.29-1.17-3.38a3.79,3.79,0,0,1-.11-.54h0a2.07,2.07,0,0,1-.12.54l-1.15,3.38Z"/><path class="cls-1" d="M195.31,31.93h-3.16v2.54h2.92v1.19h-2.92v3.53h-1.4V30.72h4.58v1.21Z"/><path class="cls-1" d="M206.76,30.74l-3,8.47h-1.57l-3-8.47h1.54l2.08,6.42a4,4,0,0,1,.16.7h0a3.71,3.71,0,0,1,.17-.72l2.14-6.42h1.48Z"/><path class="cls-1" d="M207.33,34.36h6.43a2.74,2.74,0,0,0-.88-1.88,2.88,2.88,0,0,0-2-.69,4.1,4.1,0,0,0-2.4.71V31.21a4.93,4.93,0,0,1,2.56-.63,4,4,0,0,1,3.08,1.16,4.34,4.34,0,0,1,1.12,3.17,4.61,4.61,0,0,1-1.12,3.18,3.81,3.81,0,0,1-3,1.26,3.45,3.45,0,0,1-2.85-1.26A5.93,5.93,0,0,1,207.33,34.36Zm6.43,1.17h-4.91a2.88,2.88,0,0,0,.65,1.9,2.18,2.18,0,0,0,1.71.71,2.4,2.4,0,0,0,1.78-.71A3,3,0,0,0,213.76,35.53Z"/><path class="cls-1" d="M89.92,54.71H88.39l-4-6.22a4.59,4.59,0,0,1-.26-.48h0a8.49,8.49,0,0,1,0,1.15v5.55H82.75V46.25h1.63l3.9,6.07a3.14,3.14,0,0,1,.31.51h0a9.37,9.37,0,0,1,0-1.13V46.25H89.9v8.46Z"/><path class="cls-1" d="M91.46,49.89h6.43A2.7,2.7,0,0,0,97,48a2.85,2.85,0,0,0-2-.69,4.14,4.14,0,0,0-2.4.7V46.73a4.89,4.89,0,0,1,2.55-.62,4.1,4.1,0,0,1,3.09,1.15,4.39,4.39,0,0,1,1.12,3.18,4.63,4.63,0,0,1-1.12,3.17,3.81,3.81,0,0,1-3,1.26,3.41,3.41,0,0,1-2.85-1.26A5.89,5.89,0,0,1,91.46,49.89Zm6.43,1.17H93a2.93,2.93,0,0,0,.66,1.9,2.18,2.18,0,0,0,1.71.7,2.4,2.4,0,0,0,1.77-.7A3,3,0,0,0,97.89,51.06Z"/><path class="cls-1" d="M104.43,54.85a4.23,4.23,0,0,1-1.66-.31,3.66,3.66,0,0,1-1.28-.88,4.21,4.21,0,0,1-.81-1.34,5.08,5.08,0,0,1-.29-1.74,5.65,5.65,0,0,1,.29-1.85,4,4,0,0,1,.83-1.41,3.53,3.53,0,0,1,1.31-.9,4.56,4.56,0,0,1,1.73-.31,4.14,4.14,0,0,1,1.62.31,3.82,3.82,0,0,1,1.26.88,3.88,3.88,0,0,1,.81,1.34,5.06,5.06,0,0,1,.29,1.73,5.48,5.48,0,0,1-.41,2.19A3.88,3.88,0,0,1,107,54.08l2.44,1.77h-2.13l-1.52-1.17-.62.14A5.23,5.23,0,0,1,104.43,54.85Zm.07-7.5a2.34,2.34,0,0,0-1.88.86,2.91,2.91,0,0,0-.54,1,4.29,4.29,0,0,0-.19,1.3,4.23,4.23,0,0,0,.19,1.27,2.92,2.92,0,0,0,.52,1,2.37,2.37,0,0,0,.81.63,2.22,2.22,0,0,0,1,.23,2.68,2.68,0,0,0,1.09-.21,2.27,2.27,0,0,0,.83-.6,2.72,2.72,0,0,0,.51-1,4.4,4.4,0,0,0,.19-1.31,4.59,4.59,0,0,0-.17-1.34,3,3,0,0,0-.5-1,1.84,1.84,0,0,0-.81-.62A2.84,2.84,0,0,0,104.5,47.35Z"/><path class="cls-1" d="M114.76,54.71h-4.69V46.25h1.39v7.27h3.28v1.19Z"/><path class="cls-1" d="M116.69,45.47a.85.85,0,0,1-.52-.19.67.67,0,0,1-.2-.48.7.7,0,0,1,.2-.49.73.73,0,0,1,.52-.19.77.77,0,0,1,.52.19.63.63,0,0,1,.2.49.63.63,0,0,1-.2.48A.75.75,0,0,1,116.69,45.47Zm.74,9.24H116V46.25h1.45Z"/><path class="cls-1" d="M125.4,46.26l-2.78,5.38v3.07h-1.39V51.66l-2.71-5.41h1.6l1.66,3.62a3.76,3.76,0,0,1,.17.48h0a2.92,2.92,0,0,1,.19-.48l1.74-3.62h1.5Z"/><path class="cls-1" d="M132.39,46.26l-2.78,5.38v3.07h-1.4V51.66l-2.71-5.41h1.61l1.65,3.62a5.05,5.05,0,0,1,.18.48h0c0-.12.11-.29.19-.48l1.75-3.62h1.5Z"/><path class="cls-1" d="M139.49,54.71H138l-.76-2.15h-3.33l-.72,2.15h-1.54l3.17-8.46h1.59Zm-2.67-3.29L135.65,48a3.25,3.25,0,0,1-.11-.54h0a2.51,2.51,0,0,1-.13.54l-1.15,3.38Z"/><path class="cls-1" d="M145.22,47.45h-2.43v7.26h-1.4V47.45H139V46.26h6.26v1.19Z"/><path class="cls-1" d="M157,54.71h-1.54l-4-6.22a3.17,3.17,0,0,1-.25-.48h0a7,7,0,0,1,.05,1.15v5.55h-1.36V46.25h1.64l3.9,6.07c.17.26.27.43.31.51h0a9.37,9.37,0,0,1-.05-1.13V46.25H157v8.46Z"/><path class="cls-1" d="M166,54.71h-1.53l-.76-2.15h-3.33l-.72,2.15h-1.54l3.17-8.46h1.59Zm-2.67-3.29L162.16,48a3.25,3.25,0,0,1-.11-.54h0a3.44,3.44,0,0,1-.12.54l-1.16,3.38Z"/><path class="cls-1" d="M173.2,46.87l-4.64,6.65h4.57v1.19h-6.54v-.63l4.66-6.63H167V46.26h6.25v.61Z"/><path class="cls-1" d="M175.21,45.47a.8.8,0,0,1-.51-.19.64.64,0,0,1-.21-.48.67.67,0,0,1,.21-.49.7.7,0,0,1,.51-.19.77.77,0,0,1,.52.19.64.64,0,0,1,.21.49.64.64,0,0,1-.21.48A.69.69,0,0,1,175.21,45.47Zm.75,9.24h-1.45V46.25H176Z"/><path class="cls-1" d="M184.58,54.71h-1.64l-1.34-2.25a5,5,0,0,0-.37-.54,1.75,1.75,0,0,0-.36-.36,1.53,1.53,0,0,0-.4-.21,1.35,1.35,0,0,0-.48-.07h-.57v3.43H178V46.25h2.77a4.89,4.89,0,0,1,1.11.13,2.8,2.8,0,0,1,.88.44,2.07,2.07,0,0,1,.58.7,2.29,2.29,0,0,1,.21,1,2.49,2.49,0,0,1-.14.83,2,2,0,0,1-.38.67,2.16,2.16,0,0,1-.58.5,2.71,2.71,0,0,1-.78.31v0a2.58,2.58,0,0,1,.4.29,3.31,3.31,0,0,1,.32.33,3,3,0,0,1,.31.38c.11.14.21.31.33.48Zm-5.14-7.31v2.74h1.17a1.7,1.7,0,0,0,.61-.1,1.24,1.24,0,0,0,.48-.29,1.11,1.11,0,0,0,.31-.47,1.6,1.6,0,0,0,.12-.6,1.19,1.19,0,0,0-.38-1,1.65,1.65,0,0,0-1.1-.35h-1.21Z"/><path class="cls-1" d="M190.25,54.71h-4.69V46.25H187v7.27h3.28v1.19Z"/><path class="cls-1" d="M192.17,45.47a.85.85,0,0,1-.52-.19.64.64,0,0,1-.21-.48.67.67,0,0,1,.21-.49.73.73,0,0,1,.52-.19.77.77,0,0,1,.52.19.66.66,0,0,1,.2.49.67.67,0,0,1-.2.48A.69.69,0,0,1,192.17,45.47Zm.74,9.24h-1.45V46.25h1.45Z"/><path class="cls-1" d="M200.9,46.26l-2.78,5.38v3.07h-1.4V51.66L194,46.25h1.61l1.65,3.62a5.05,5.05,0,0,1,.18.48h0c0-.12.11-.29.19-.48l1.75-3.62h1.5Z"/><path class="cls-1" d="M202.67,45.47a.8.8,0,0,1-.51-.19.64.64,0,0,1-.21-.48.67.67,0,0,1,.21-.49.7.7,0,0,1,.51-.19.77.77,0,0,1,.52.19.64.64,0,0,1,.21.49.64.64,0,0,1-.21.48A.73.73,0,0,1,202.67,45.47Zm.74,9.24H202V46.25h1.44Z"/></g></svg>